<?xml version="1.0" encoding="UTF-8"?>
<svg version="1.1" xmlns="http://www.w3.org/2000/svg" width="550" height="454">
<path d="M0 0 C1.7969355 0.0727137 1.7969355 0.0727137 3.63017273 0.14689636 C4.88714462 0.15867416 6.14411652 0.17045197 7.43917847 0.18258667 C10.78062192 0.22351339 14.11514332 0.30799703 17.45475769 0.41368103 C20.78956783 0.50799059 24.12435516 0.54159889 27.46025085 0.58244324 C33.75588719 0.67331087 40.04594129 0.83773169 46.33860779 1.04945374 C49.37267268 1.14877878 52.40638378 1.22443935 55.44120789 1.295578 C57.06936574 1.34954777 58.69746662 1.40528392 60.32548523 1.46330261 C61.03671036 1.4762587 61.74793549 1.48921478 62.48071289 1.50256348 C65.67893756 1.64879163 67.39471463 1.93750348 69.93363953 3.95378113 C71.6391912 6.26372598 72.62063773 8.48894319 73.67314148 11.15861511 C74.61969173 13.08112819 75.57865758 14.99756439 76.54814148 16.90861511 C77.04829773 17.93599792 77.54845398 18.96338074 78.06376648 20.02189636 C80.24878247 24.28055618 82.78293998 28.27674657 85.32939148 32.32658386 C88.8274053 37.96482982 92.04081918 43.77400228 95.28495789 49.56071472 C98.11871442 54.57789632 101.09818122 59.41641657 104.37187195 64.15959167 C105.63940129 66.10678309 106.67730741 68.06163156 107.67314148 70.15861511 C109.09618741 73.14642109 110.73193841 75.80877861 112.61064148 78.53361511 C114.66979343 81.5357115 116.41427754 84.51698596 117.98564148 87.79924011 C120.64876665 93.20512044 123.64124384 98.36534261 126.73564148 103.53361511 C127.30073425 104.48333191 127.86582703 105.43304871 128.44804382 106.4115448 C130.18594802 109.32951935 131.92904404 112.24433901 133.67314148 115.15861511 C134.71613831 116.90599418 135.75910815 118.65338937 136.80204773 120.40080261 C141.66076052 128.52931905 146.55665454 136.63502705 151.48564148 144.72111511 C151.93874695 145.467724 152.39185242 146.21433289 152.85868835 146.98356628 C155.39642042 151.14568981 158.05100219 155.19272349 160.79814148 159.22111511 C163.67675405 163.8004092 165.60546522 167.67655155 164.67314148 173.15861511 C163.09805421 177.10844934 160.94108807 180.57198618 158.67314148 184.15861511 C157.96518565 185.35314536 157.26088601 186.54984849 156.55986023 187.74845886 C152.61108342 194.41319737 152.61108342 194.41319737 150.67314148 197.15861511 C150.01314148 197.15861511 149.35314148 197.15861511 148.67314148 197.15861511 C148.59193054 197.67681824 148.5107196 198.19502136 148.42704773 198.72892761 C147.36520177 202.15104255 145.48813493 205.01120431 143.61064148 208.03361511 C142.79685507 209.36486084 141.98438731 210.69691342 141.17314148 212.02970886 C140.75935242 212.70888367 140.34556335 213.38805847 139.91923523 214.08781433 C137.92994869 217.39367805 136.01648968 220.74164842 134.11064148 224.09611511 C133.59135071 225.00949646 133.59135071 225.00949646 133.06156921 225.94132996 C132.26405285 227.34631276 131.46837126 228.75233683 130.67314148 230.15861511 C130.01314148 230.15861511 129.35314148 230.15861511 128.67314148 230.15861511 C128.55068054 230.73740417 128.4282196 231.31619324 128.30204773 231.91252136 C126.17177469 239.52063937 120.62698554 246.52586519 116.51689148 253.16642761 C113.9059172 257.40372909 111.45492349 261.68191576 109.12626648 266.08049011 C105.83292987 272.28828389 102.38350717 278.26608999 98.55204773 284.15470886 C95.90515825 288.38643029 93.50572372 292.74498939 91.08427429 297.10832214 C88.67659629 301.42761875 86.16953386 305.65290139 83.54814148 309.84611511 C79.62215774 316.1371493 76.11230984 322.59195302 72.67314148 329.15861511 C72.01314148 329.15861511 71.35314148 329.15861511 70.67314148 329.15861511 C70.67314148 330.14861511 70.67314148 331.13861511 70.67314148 332.15861511 C70.01314148 332.15861511 69.35314148 332.15861511 68.67314148 332.15861511 C68.34314148 333.14861511 68.01314148 334.13861511 67.67314148 335.15861511 C64.65802778 336.66617196 61.53754352 336.32850746 58.2286377 336.34616089 C57.45190931 336.35407097 56.67518092 336.36198105 55.8749153 336.37013084 C53.2579531 336.39530233 50.64099431 336.41314154 48.02397156 336.43083191 C46.15328217 336.44691198 44.28259534 336.46329174 42.41191101 336.47994995 C25.32889384 336.6246357 8.24514505 336.69969422 -8.83835888 336.75886822 C-21.47016523 336.8034643 -34.10088779 336.88064117 -46.73220938 337.0004527 C-55.60954812 337.08182482 -64.48658949 337.12500034 -73.36428529 337.1401704 C-78.66860062 337.15034368 -83.97155118 337.17769371 -89.27545738 337.24648094 C-94.26721087 337.31050626 -99.25691049 337.3272859 -104.24901581 337.30798531 C-106.07965017 337.30913886 -107.91036689 337.32739338 -109.74063301 337.36412811 C-123.56432036 337.62723048 -123.56432036 337.62723048 -127.93584633 333.98470497 C-129.76143631 331.43406281 -131.08503242 329.03152427 -132.32685852 326.15861511 C-132.99240013 324.92813256 -133.66005425 323.69878785 -134.33076477 322.47111511 C-135.10226868 320.83142761 -135.10226868 320.83142761 -135.88935852 319.15861511 C-138.72307474 313.27572129 -141.87979385 307.70149511 -145.32685852 302.15861511 C-148.97772915 296.18186346 -152.43079552 290.14506299 -155.73701477 283.97111511 C-157.96116034 280.0365087 -160.46486939 276.3042658 -163.00654602 272.56877136 C-164.32685852 270.15861511 -164.32685852 270.15861511 -164.32685852 266.15861511 C-164.98685852 266.15861511 -165.64685852 266.15861511 -166.32685852 266.15861511 C-167.46846008 264.68083191 -167.46846008 264.68083191 -168.71748352 262.60783386 C-169.17663147 261.85212097 -169.63577942 261.09640808 -170.10884094 260.3177948 C-170.59328674 259.5021405 -171.07773254 258.68648621 -171.57685852 257.84611511 C-172.07483948 257.01885925 -172.57282043 256.19160339 -173.08589172 255.33927917 C-176.13721484 250.24227887 -179.07960616 245.10083721 -181.87373352 239.85783386 C-184.90583636 234.22562133 -188.13223753 228.69979649 -191.32685852 223.15861511 C-191.96236633 222.05388855 -192.59787415 220.94916199 -193.25263977 219.81095886 C-195.58849003 215.77448958 -197.9096763 211.77842869 -200.51435852 207.90861511 C-201.92127852 205.77397787 -203.02604576 203.81043935 -204.12763977 201.52580261 C-206.33030375 197.07277818 -208.79212321 192.80426007 -211.32685852 188.53361511 C-211.75224915 187.80916199 -212.17763977 187.08470886 -212.61592102 186.33830261 C-214.52659243 183.10305531 -216.45735346 179.97190697 -218.61201477 176.88908386 C-221.14988946 172.84813989 -220.84902805 170.85814089 -220.32685852 166.15861511 C-218.95185852 163.15861511 -218.95185852 163.15861511 -217.32685852 161.15861511 C-216.66685852 161.15861511 -216.00685852 161.15861511 -215.32685852 161.15861511 C-215.0974054 160.48572449 -214.86795227 159.81283386 -214.63154602 159.11955261 C-212.97454539 155.35905417 -210.77701703 152.15950123 -208.45185852 148.78361511 C-205.94733693 145.12716222 -203.47181538 141.49563349 -201.30342102 137.62736511 C-199.21862206 133.96866654 -196.94295736 130.51268243 -194.57685852 127.03361511 C-190.64097586 121.19070794 -186.87120171 115.2782604 -183.21357727 109.25627136 C-182.27965149 107.72293152 -182.27965149 107.72293152 -181.32685852 106.15861511 C-181.05290253 105.49035202 -180.77894653 104.82208893 -180.49668884 104.13357544 C-179.34705796 101.67603732 -178.30962202 100.02591021 -176.32685852 98.15861511 C-172.08507911 97.01759872 -167.95398081 97.22704824 -163.58857727 97.37736511 C-162.35267349 97.38868469 -161.11676971 97.40000427 -159.84341431 97.41166687 C-156.5688795 97.44882148 -153.29752959 97.52058092 -150.02406311 97.60929871 C-146.67932993 97.69137556 -143.33445761 97.72703914 -139.9889679 97.76799011 C-133.4336895 97.85615899 -126.88053433 97.98999739 -120.32685852 98.15861511 C-120.97691129 102.65651732 -121.77083394 105.31913869 -124.51435852 108.97111511 C-125.14471008 109.8309198 -125.77506165 110.69072449 -126.42451477 111.57658386 C-127.05228821 112.42865417 -127.68006165 113.28072449 -128.32685852 114.15861511 C-129.37932292 115.69293068 -130.42164061 117.23427441 -131.45185852 118.78361511 C-131.9339679 119.50677917 -132.41607727 120.22994324 -132.91279602 120.97502136 C-134.7710235 123.84449418 -136.5230728 126.77414153 -138.24873352 129.72502136 C-138.60451477 130.1981073 -138.96029602 130.67119324 -139.32685852 131.15861511 C-139.98685852 131.15861511 -140.64685852 131.15861511 -141.32685852 131.15861511 C-141.32685852 132.14861511 -141.32685852 133.13861511 -141.32685852 134.15861511 C-141.98685852 134.15861511 -142.64685852 134.15861511 -143.32685852 134.15861511 C-143.65685852 135.80861511 -143.98685852 137.45861511 -144.32685852 139.15861511 C-144.98685852 139.15861511 -145.64685852 139.15861511 -146.32685852 139.15861511 C-146.56920227 139.84439636 -146.81154602 140.53017761 -147.06123352 141.23674011 C-148.5622696 144.70209501 -150.50859852 147.76547756 -152.57685852 150.90861511 C-153.17313049 151.83287292 -153.17313049 151.83287292 -153.78144836 152.77580261 C-155.55946822 155.52071497 -157.36680904 158.21368635 -159.28779602 160.86174011 C-162.42884064 165.11607721 -162.42884064 165.11607721 -163.57685852 170.15861511 C-162.03161715 173.86719439 -159.95309107 176.95573337 -157.60420227 180.20549011 C-156.32685852 182.15861511 -156.32685852 182.15861511 -156.32685852 184.15861511 C-155.66685852 184.15861511 -155.00685852 184.15861511 -154.32685852 184.15861511 C-153.7467804 185.26269714 -153.7467804 185.26269714 -153.15498352 186.38908386 C-150.5081174 191.34868201 -147.88427558 195.79791033 -144.32685852 200.15861511 C-143.07670098 202.27918951 -141.90467766 204.4336514 -140.73677063 206.60050964 C-139.38830151 209.04713466 -137.98184975 211.44315966 -136.53779602 213.83439636 C-136.01234192 214.70620544 -135.48688782 215.57801453 -134.94551086 216.47624207 C-134.41135559 217.36142517 -133.87720032 218.24660828 -133.32685852 219.15861511 C-132.32636005 220.8249826 -131.32635163 222.49164442 -130.32685852 224.15861511 C-129.83185852 224.98361511 -129.33685852 225.80861511 -128.82685852 226.65861511 C-127.32685852 229.15861511 -125.82685852 231.65861511 -124.32685852 234.15861511 C-123.83379211 234.98031189 -123.34072571 235.80200867 -122.8327179 236.64860535 C-121.81290054 238.34846628 -120.79337805 240.04850415 -119.77412415 241.748703 C-117.51701695 245.51305146 -115.2582902 249.27625158 -112.98310852 253.02970886 C-109.53846425 258.72221532 -106.14541339 264.40991471 -103.01435852 270.28361511 C-101.07614068 273.91307567 -98.94703084 276.9769773 -96.32685852 280.15861511 C-95.62983602 281.81281639 -94.95896697 283.4785374 -94.32685852 285.15861511 C-77.2026688 285.32214533 -60.07872277 285.44557962 -42.95393085 285.52130032 C-35.00253509 285.55739358 -27.0516245 285.6065993 -19.10054016 285.68669128 C-12.17024052 285.75646753 -5.24029222 285.80162376 1.69034892 285.81723458 C5.36021819 285.82636013 9.02908235 285.84779905 12.69862938 285.89872551 C16.79564845 285.95512315 20.8909211 285.95654413 24.98832703 285.95329285 C26.20464813 285.97845978 27.42096924 286.00362671 28.67414856 286.02955627 C34.54375546 286.18613973 34.54375546 286.18613973 39.49331093 283.54681587 C41.02817856 281.42184344 41.02817856 281.42184344 42.67314148 278.15861511 C43.33314148 278.15861511 43.99314148 278.15861511 44.67314148 278.15861511 C44.79044617 277.59142761 44.90775085 277.02424011 45.02861023 276.43986511 C47.61898299 267.27151548 54.4320648 258.48412597 59.35795593 250.41642761 C62.38475723 245.43030205 65.13966707 240.41345319 67.67314148 235.15861511 C68.33314148 235.15861511 68.99314148 235.15861511 69.67314148 235.15861511 C69.79689148 234.58111511 69.92064148 234.00361511 70.04814148 233.40861511 C70.67962972 231.13525744 71.56172339 229.23326222 72.67314148 227.15861511 C73.33314148 227.15861511 73.99314148 227.15861511 74.67314148 227.15861511 C74.7893988 226.41982117 74.90565613 225.68102722 75.0254364 224.91984558 C75.67612976 222.14587576 76.52853885 220.37448316 78.03642273 217.97892761 C78.51144226 217.21451355 78.98646179 216.45009949 79.47587585 215.66252136 C79.97409851 214.8774823 80.47232117 214.09244324 80.98564148 213.28361511 C81.96182977 211.72429978 82.93710372 210.16441163 83.91142273 208.60392761 C84.37886902 207.85788269 84.84631531 207.11183777 85.32792664 206.34318542 C87.18752206 203.32328345 88.9372532 200.25105266 90.67314148 197.15861511 C91.33314148 197.15861511 91.99314148 197.15861511 92.67314148 197.15861511 C93.01345398 195.91144714 93.01345398 195.91144714 93.36064148 194.63908386 C94.93905015 190.4534823 97.13912123 187.13096436 99.67314148 183.47111511 C100.12431335 182.80789246 100.57548523 182.1446698 101.04032898 181.46134949 C101.87698015 180.23236337 102.7164799 179.00530764 103.55986023 177.78092957 C106.03229938 174.58374759 106.03229938 174.58374759 106.44657898 170.73674011 C105.6652619 168.13234983 104.73195494 166.21266218 103.29814148 163.90861511 C102.76704773 163.05138855 102.23595398 162.19416199 101.68876648 161.31095886 C98.69484546 156.62860564 95.67973359 151.95986997 92.63261414 147.31193542 C84.67314148 135.12797195 84.67314148 135.12797195 84.67314148 131.15861511 C84.01314148 131.15861511 83.35314148 131.15861511 82.67314148 131.15861511 C82.31252625 130.49362 81.95191101 129.82862488 81.58036804 129.14347839 C77.91817532 122.40744908 74.19764395 115.70730668 70.42314148 109.03361511 C69.85812927 108.03443054 69.29311707 107.03524597 68.71098328 106.00578308 C64.18645174 98.02477263 59.56957597 90.10293422 54.88798523 82.21330261 C53.61100841 80.05352832 52.34409397 77.88809789 51.07939148 75.72111511 C50.64521912 74.97845398 50.21104675 74.23579285 49.76371765 73.47062683 C48.95250188 72.08249485 48.14261055 70.69358736 47.33451843 69.30363464 C46.56179721 67.98420944 45.7658306 66.67817107 44.94926453 65.38542175 C43.67314148 63.15861511 43.67314148 63.15861511 42.51615906 60.21110535 C40.91125517 56.71059271 39.64793611 54.63147371 36.67314148 52.15861511 C30.2773785 50.39453656 23.25430465 51.48049902 16.73564148 51.97111511 C14.8110771 52.07484149 12.88616915 52.17237074 10.96098328 52.26383972 C7.07135713 52.45088152 3.18391119 52.66033353 -0.70381165 52.88322449 C-8.80725426 53.31643393 -16.90236936 53.28297549 -25.01435852 53.22111511 C-26.38601928 53.21560804 -27.75768299 53.21078374 -29.12934875 53.20671082 C-32.19525397 53.19601556 -35.26101447 53.1801892 -38.32685852 53.15861511 C-39.45185852 49.40861511 -39.45185852 49.40861511 -38.32685852 47.15861511 C-37.66685852 47.15861511 -37.00685852 47.15861511 -36.32685852 47.15861511 C-36.32685852 46.49861511 -36.32685852 45.83861511 -36.32685852 45.15861511 C-35.66685852 45.15861511 -35.00685852 45.15861511 -34.32685852 45.15861511 C-34.06002258 44.27947449 -33.79318665 43.40033386 -33.51826477 42.49455261 C-32.37260215 39.28669728 -31.0254719 36.68966036 -29.26435852 33.78361511 C-27.16309674 30.27131892 -25.08897964 26.75808065 -23.11201477 23.17424011 C-22.73246643 22.4876532 -22.35291809 21.80106628 -21.96186829 21.09367371 C-21.2329828 19.77073636 -20.50787681 18.44570566 -19.78755188 17.11808777 C-19.09328609 15.86394059 -18.37829092 14.62101238 -17.64161682 13.39129639 C-16.71910167 11.82471012 -15.84779982 10.22737327 -15.0161438 8.61071777 C-10.99777019 1.6704153 -7.96653167 0.0175453 0 0 Z " fill="#78D620" transform="translate(381.3268585205078,81.84138488769531)"/>
<path d="M0 0 C1.15412356 -0.01314676 1.15412356 -0.01314676 2.33156276 -0.02655911 C4.91780869 -0.05333483 7.50391834 -0.06569232 10.090271 -0.07794189 C11.94140743 -0.09374382 13.79253772 -0.11028172 15.6436615 -0.12750244 C21.72964595 -0.17994143 27.81565794 -0.21055608 33.90179443 -0.23907471 C35.99640674 -0.24979388 38.09101886 -0.2605489 40.1856308 -0.27133942 C48.89789571 -0.31459552 57.6101532 -0.35206983 66.32249832 -0.3745842 C78.8116322 -0.40707023 91.29952232 -0.47344027 103.78818727 -0.58738589 C112.56790258 -0.66476255 121.34728509 -0.7038466 130.12733245 -0.71442533 C135.37236188 -0.72173548 140.61606486 -0.74580322 145.8607254 -0.8106308 C150.79590521 -0.87075882 155.7289551 -0.88343272 160.66442299 -0.85986328 C162.47408042 -0.85942148 164.28383613 -0.87606143 166.093153 -0.91117096 C179.75642397 -1.16184008 179.75642397 -1.16184008 184.10797882 2.4826889 C185.9324774 5.03220354 187.26289288 7.43917276 188.51116943 10.30780029 C189.17710585 11.53806922 189.84481003 12.76738462 190.51507568 13.99530029 C191.28657959 15.63498779 191.28657959 15.63498779 192.07366943 17.30780029 C195.85825521 25.15443726 200.2987605 32.42866536 205.01116943 39.74530029 C207.81525174 44.12553344 210.33899034 48.58948103 212.78851318 53.17498779 C214.90341817 57.02114153 217.14198959 60.78609077 219.38616943 64.55780029 C223.06392829 70.74063912 226.55940313 76.98671694 229.82318115 83.39862061 C231.19934739 86.05826182 232.59077443 88.40534001 234.48773193 90.72967529 C236.61947704 93.4457984 238.00072924 96.11467207 239.4887085 99.21112061 C241.14773871 102.61316251 243.02151398 105.89031426 244.88616943 109.18280029 C245.24710693 109.82604248 245.60804443 110.46928467 245.97991943 111.13201904 C248.06018443 114.81976153 250.20080685 118.4633771 252.39398193 122.08514404 C254.57919851 125.70889793 256.67994427 129.36757414 258.72991943 133.06951904 C259.27003662 134.04340576 259.81015381 135.01729248 260.36663818 136.02069092 C261.46795788 138.01274543 262.56427415 140.0075739 263.65570068 142.00506592 C266.82722579 147.70094335 270.18634059 152.44236785 274.51116943 157.30780029 C274.51116943 157.96780029 274.51116943 158.62780029 274.51116943 159.30780029 C275.17116943 159.30780029 275.83116943 159.30780029 276.51116943 159.30780029 C278.32917236 163.1710565 278.85462352 166.0489696 278.51116943 170.30780029 C277.22601318 172.94842529 277.22601318 172.94842529 275.44866943 175.55780029 C274.80800537 176.51170654 274.16734131 177.46561279 273.50726318 178.44842529 C272.84855225 179.39201904 272.18984131 180.33561279 271.51116943 181.30780029 C270.924646 182.14826904 270.33812256 182.98873779 269.73382568 183.85467529 C268.57931408 185.4987417 267.42172626 187.14065192 266.26116943 188.78045654 C263.82753787 192.29509856 261.54497438 195.89671799 259.26898193 199.51483154 C258.08648265 201.39369151 256.89355782 203.26602604 255.69085693 205.13201904 C252.58196984 209.95685031 249.64056029 214.8084376 246.89398193 219.84686279 C245.14562898 222.95833839 243.30886009 226.01245017 241.44866943 229.05780029 C240.79769287 230.12514404 240.14671631 231.19248779 239.47601318 232.29217529 C234.45932167 239.99174955 234.45932167 239.99174955 230.51116943 241.30780029 C228.86958493 241.39518928 227.22465321 241.4254665 225.58074951 241.42132568 C224.57993851 241.42125015 223.5791275 241.42117462 222.54798889 241.4210968 C221.46978378 241.41593552 220.39157867 241.41077423 219.28070068 241.40545654 C218.17514328 241.4040416 217.06958588 241.40262665 215.93052673 241.40116882 C212.39488026 241.39556543 208.85929681 241.38301234 205.32366943 241.37030029 C202.92848806 241.36528573 200.53330569 241.36072275 198.13812256 241.35662842 C192.26244997 241.3455949 186.3868142 241.32885345 180.51116943 241.30780029 C180.35574742 234.8054281 180.35574742 234.8054281 183.13616943 231.68280029 C185.78776887 228.42884688 187.64516188 225.22454124 189.44866943 221.43280029 C191.81375304 216.52402 194.51965051 212.21494364 197.71429443 207.81170654 C202.10063817 201.6994319 206.08061883 195.42264959 209.26898193 188.60858154 C210.3448496 186.6158581 211.49240572 184.7903319 212.75335693 182.91326904 C213.16343994 182.30007813 213.57352295 181.68688721 213.99603271 181.05511475 C214.82347436 179.83055859 215.66260527 178.61379979 216.5145874 177.40618896 C219.12644766 173.53642276 220.23664321 170.95827323 219.51116943 166.30780029 C218.26782919 163.37766037 218.26782919 163.37766037 216.44866943 160.55780029 C215.81316162 159.52010498 215.17765381 158.48240967 214.52288818 157.41326904 C212.13539562 153.72772227 209.66487612 150.11817564 207.08929443 146.56170654 C202.51116943 140.02314683 202.51116943 140.02314683 202.51116943 137.30780029 C201.85116943 137.30780029 201.19116943 137.30780029 200.51116943 137.30780029 C200.17085693 136.67615967 199.83054443 136.04451904 199.47991943 135.39373779 C193.3746984 124.12505854 187.0390313 113.03111563 180.27288818 102.14764404 C179.691521 101.21049561 179.11015381 100.27334717 178.51116943 99.30780029 C177.94011475 98.42221436 177.36906006 97.53662842 176.78070068 96.62420654 C175.51116943 94.30780029 175.51116943 94.30780029 175.51116943 91.30780029 C174.85116943 91.30780029 174.19116943 91.30780029 173.51116943 91.30780029 C172.32537842 89.69403076 172.32537842 89.69403076 171.00726318 87.42498779 C170.51806396 86.59378418 170.02886475 85.76258057 169.52484131 84.90618896 C169.00470459 84.0074707 168.48456787 83.10875244 167.94866943 82.18280029 C166.86584034 80.34189286 165.78119257 78.50205402 164.69476318 76.66326904 C164.15706299 75.75238525 163.61936279 74.84150146 163.06536865 73.90301514 C160.31283192 69.30680629 157.3865057 64.82985653 154.44866943 60.35076904 C152.35240346 57.05844809 150.43784818 53.70176908 148.51116943 50.30780029 C132.09037107 50.13450638 115.67106832 50.03586187 99.24943542 50.02539349 C91.62393132 50.01880342 83.99997181 49.98804907 76.37493896 49.89984131 C69.72658426 49.82299386 63.07984739 49.79206239 56.4310627 49.81561691 C52.91168589 49.82649821 49.39572426 49.81483396 45.87689209 49.74811363 C32.21117303 48.77767648 32.21117303 48.77767648 19.57336807 52.58022881 C16.28158062 55.98974014 14.91905801 59.80852446 13.51116943 64.30780029 C12.63610655 65.87882526 11.72637282 67.43220473 10.75335693 68.94451904 C9.96308968 70.29407471 9.17400622 71.64432434 8.38616943 72.99530029 C7.52966175 74.45639209 6.67289266 75.91733067 5.81585693 77.37811279 C5.41592529 78.06034912 5.01599365 78.74258545 4.60394287 79.44549561 C0.23833728 86.88536143 -4.28375717 94.21864066 -8.88726807 101.51312256 C-11.53367933 105.72089553 -14.03957328 109.98230037 -16.48883057 114.30780029 C-17.50359302 116.01974674 -18.52380762 117.72848223 -19.55133057 119.43280029 C-20.03730713 120.23975342 -20.52328369 121.04670654 -21.02398682 121.87811279 C-21.99340411 123.48605295 -22.96473096 125.09284353 -23.93804932 126.69842529 C-25.75212373 129.75082254 -27.49372313 132.84046991 -29.23883057 135.93280029 C-32.36134335 141.44479027 -35.65710866 146.80721144 -39.14117432 152.10076904 C-40.62720601 154.34874226 -40.62720601 154.34874226 -41.48883057 157.30780029 C-42.14883057 157.30780029 -42.80883057 157.30780029 -43.48883057 157.30780029 C-43.77758057 158.07092529 -44.06633057 158.83405029 -44.36383057 159.62030029 C-45.48883057 162.30780029 -45.48883057 162.30780029 -47.48883057 165.30780029 C-47.88270844 167.63167976 -48.22369141 169.96573779 -48.48883057 172.30780029 C-47.82883057 172.30780029 -47.16883057 172.30780029 -46.48883057 172.30780029 C-46.0131665 173.2030542 -46.0131665 173.2030542 -45.52789307 174.11639404 C-42.3115663 180.09591867 -38.94896858 185.96675625 -35.48883057 191.80780029 C-32.28159671 197.22395086 -29.17040139 202.66797875 -26.19195557 208.21405029 C-23.7918664 212.57384529 -21.29702566 216.87718795 -18.80133057 221.18280029 C-18.32510254 222.0044165 -17.84887451 222.82603271 -17.35821533 223.67254639 C-16.90245117 224.45710205 -16.44668701 225.24165771 -15.97711182 226.04998779 C-15.54608154 226.79345459 -15.11505127 227.53692139 -14.67095947 228.30291748 C-13.69875992 229.95176149 -12.68345218 231.57511212 -11.65679932 233.19061279 C-10.48883057 235.30780029 -10.48883057 235.30780029 -10.48883057 238.30780029 C-9.82883057 238.30780029 -9.16883057 238.30780029 -8.48883057 238.30780029 C-8.1369165 239.05803467 -7.78500244 239.80826904 -7.42242432 240.58123779 C-4.92206812 245.76474384 -2.39092097 250.6554985 1.01116943 255.30780029 C3.57782062 258.82568843 5.61397984 262.32477818 7.51116943 266.24530029 C8.017771 267.23916748 8.52437256 268.23303467 9.04632568 269.25701904 C10.51116943 272.30780029 10.51116943 272.30780029 11.63226318 275.51483154 C13.22745034 279.20222264 14.20646208 280.96019397 17.51116943 283.30780029 C26.11311191 284.97572972 36.04010984 284.52770285 44.51116943 282.30780029 C56.78862878 281.03933829 69.18304831 281.20112768 81.51116943 281.18280029 C82.33214111 281.1802121 83.15311279 281.1776239 83.9989624 281.17495728 C86.35724232 281.16910159 88.71538846 281.17068818 91.07366943 281.17498779 C91.79377197 281.17300888 92.51387451 281.17102997 93.25579834 281.16899109 C98.28063983 281.19253549 98.28063983 281.19253549 100.51116943 282.30780029 C99.89839332 285.26955152 99.25744422 286.68838812 97.51116943 289.30780029 C96.85116943 289.30780029 96.19116943 289.30780029 95.51116943 289.30780029 C95.26366943 289.98842529 95.01616943 290.66905029 94.76116943 291.37030029 C91.33693534 299.41725041 86.11001586 306.58297692 81.28851318 313.83709717 C78.38531026 318.25252528 75.71252729 322.59629725 73.54827881 327.42327881 C72.0637238 330.12084946 70.70189054 332.10456379 68.51116943 334.30780029 C65.76796878 334.82922108 63.62997667 335.02310387 60.88446045 335.00238037 C60.12137573 335.01596085 59.35829102 335.02954132 58.57208252 335.04353333 C56.05259663 335.08079695 53.53481256 335.08086636 51.01507568 335.07733154 C49.26156449 335.08832038 47.50805956 335.10035412 45.75456238 335.11338806 C42.08006385 335.13429419 38.40616367 335.13557445 34.73162842 335.12445068 C30.02520176 335.11275732 25.32147367 335.16027594 20.6155405 335.22391224 C16.99426801 335.26451982 13.37364592 335.26827676 9.7521801 335.26151085 C8.01740227 335.26371622 6.28259205 335.27860517 4.54803658 335.30646706 C-8.99657602 335.49909631 -8.99657602 335.49909631 -12.5900116 332.63038635 C-13.91609061 330.54961262 -14.72736447 328.64740588 -15.48883057 326.30780029 C-15.98729492 325.4609668 -16.48575928 324.6141333 -16.99932861 323.74163818 C-17.61868286 322.64710327 -17.61868286 322.64710327 -18.25054932 321.53045654 C-18.96187012 320.27809204 -18.96187012 320.27809204 -19.68756104 319.00042725 C-20.17885498 318.13248535 -20.67014893 317.26454346 -21.17633057 316.37030029 C-27.93016333 304.49507278 -34.82342788 292.70758108 -41.87554932 281.00701904 C-44.47466298 276.65838092 -47.03140811 272.28484825 -49.59503174 267.91522217 C-52.81008282 262.44269202 -56.06306649 256.99407891 -59.35723877 251.56878662 C-61.24332241 248.44685375 -63.06176901 245.29789704 -64.82476807 242.10467529 C-67.89798865 236.53906517 -71.09605724 231.04814574 -74.30133057 225.55780029 C-74.91863037 224.49956055 -75.53593018 223.4413208 -76.17193604 222.35101318 C-80.01762944 215.77577603 -83.92728079 209.25211847 -87.95758057 202.78826904 C-89.22610378 200.73339087 -90.43858027 198.66661635 -91.61383057 196.55780029 C-93.15459334 193.88714481 -94.78272865 191.44949055 -96.55133057 188.93280029 C-99.48285225 184.62086586 -101.13762311 180.32149112 -102.48883057 175.30780029 C-103.14883057 175.30780029 -103.80883057 175.30780029 -104.48883057 175.30780029 C-104.48883057 172.66780029 -104.48883057 170.02780029 -104.48883057 167.30780029 C-103.82883057 167.30780029 -103.16883057 167.30780029 -102.48883057 167.30780029 C-102.36508057 166.10123779 -102.36508057 166.10123779 -102.23883057 164.87030029 C-101.28686382 160.34845824 -99.47302877 156.46077328 -97.48883057 152.30780029 C-96.82883057 152.30780029 -96.16883057 152.30780029 -95.48883057 152.30780029 C-95.06670288 151.20879395 -95.06670288 151.20879395 -94.63604736 150.08758545 C-93.5941762 147.56306 -92.44300246 145.22483553 -91.13336182 142.83123779 C-90.67920898 142.00108154 -90.22505615 141.17092529 -89.75714111 140.31561279 C-89.03651489 139.01237061 -89.03651489 139.01237061 -88.30133057 137.68280029 C-87.80737793 136.78561279 -87.31342529 135.88842529 -86.80450439 134.96405029 C-83.74065653 129.44162084 -80.50885622 124.09149403 -77.03570557 118.81561279 C-74.72481653 115.06917148 -72.87913524 111.11738913 -70.96148682 107.15936279 C-69.17500124 103.70012016 -67.06761274 100.57255599 -64.85211182 97.37811279 C-63.57549132 95.43940544 -62.54723437 93.52631723 -61.55133057 91.43280029 C-59.97586869 88.12498407 -58.12080128 85.12315162 -56.11383057 82.05780029 C-52.95199381 77.18979039 -50.3628974 72.18038216 -47.82867432 66.96405029 C-46.2807691 63.89531692 -44.45400581 61.12455147 -42.48883057 58.30780029 C-39.89101266 53.8400014 -37.38371867 49.32472103 -34.8862915 44.80023193 C-31.31343722 38.32837521 -27.70146663 31.90321272 -23.84820557 25.59295654 C-22.32520234 23.03273561 -20.90352035 20.42935172 -19.48883057 17.80780029 C-17.4744611 14.09099784 -15.42993665 10.39809344 -13.30133057 6.74530029 C-12.59943604 5.5368042 -12.59943604 5.5368042 -11.88336182 4.30389404 C-8.70676897 -0.24299375 -5.03935557 0.0069496 0 0 Z " fill="#77D61F" transform="translate(104.48883056640625,83.69219970703125)"/>
<path d="M0 0 C1.48550695 2.97101391 0.82306972 4.83434722 0 8 C-2.05255732 10.59435502 -3.22372884 11.85009387 -6.51127625 12.48495388 C-7.93594963 12.47420629 -7.93594963 12.47420629 -9.3894043 12.46324158 C-10.48296234 12.46466156 -11.57652039 12.46608154 -12.70321655 12.46754456 C-13.89814728 12.44852585 -15.093078 12.42950714 -16.32421875 12.40991211 C-17.58634186 12.40556152 -18.84846497 12.40121094 -20.14883423 12.39672852 C-23.60775547 12.38395811 -27.06597607 12.34587167 -30.5246315 12.30244136 C-34.14482621 12.26043315 -37.76515017 12.23893975 -41.38549805 12.2144928 C-47.4651981 12.17020225 -53.54457244 12.10965137 -59.62402344 12.03930664 C-66.65171954 11.95817297 -73.67927814 11.90187969 -80.70730495 11.85910028 C-87.46921419 11.81743487 -94.23087581 11.75896483 -100.99258423 11.69256783 C-103.86966601 11.66456504 -106.74670757 11.64231055 -109.62387085 11.62464714 C-113.64148819 11.59901337 -117.65843039 11.54874112 -121.67578125 11.49584961 C-122.87071198 11.49100052 -124.0656427 11.48615143 -125.29678345 11.4811554 C-126.39034149 11.46283661 -127.48389954 11.44451782 -128.6105957 11.42564392 C-130.03526909 11.41093756 -130.03526909 11.41093756 -131.48872375 11.3959341 C-134.45806365 10.92778054 -135.86136131 10.09096708 -138 8 C-138.25 5.3125 -138.25 5.3125 -138 3 C-137.34 3.66 -136.68 4.32 -136 5 C-133.60378892 5.31313044 -133.60378892 5.31313044 -130.775177 5.27415466 C-129.66753998 5.28412979 -128.55990295 5.29410492 -127.41870117 5.30438232 C-125.58746704 5.30537933 -125.58746704 5.30537933 -123.71923828 5.30639648 C-122.43790009 5.31472 -121.15656189 5.32304352 -119.83639526 5.33161926 C-116.31568758 5.3536012 -112.79506676 5.36236815 -109.27429819 5.36744571 C-107.07551316 5.37108514 -104.87675102 5.37732304 -102.6779747 5.3844471 C-95.00942736 5.4089551 -87.34094778 5.42199625 -79.67236328 5.42553711 C-72.52062564 5.42917277 -65.36931708 5.45906637 -58.21771061 5.50094169 C-52.0809132 5.53561705 -45.94425814 5.55108507 -39.80736339 5.55178314 C-36.14061349 5.55257697 -32.47430034 5.56136252 -28.80765152 5.58978081 C-24.71797593 5.62076774 -20.62932439 5.61191527 -16.53955078 5.59936523 C-14.71438934 5.62161667 -14.71438934 5.62161667 -12.85235596 5.64431763 C-6.42248619 5.7772331 -6.42248619 5.7772331 -1.21627808 2.46253967 C-0.81490631 1.64990158 -0.41353455 0.83726349 0 0 Z " fill="#9DDC5A" transform="translate(423,362)"/>
<path d="M0 0 C0.77223797 -0.00523668 1.54447595 -0.01047336 2.34011507 -0.01586872 C4.935739 -0.03090767 7.53116649 -0.03157472 10.12683105 -0.03224182 C11.9844547 -0.03986055 13.84207518 -0.04828755 15.69969177 -0.0574646 C20.75121339 -0.07944128 25.80267448 -0.08821244 30.85423851 -0.09329104 C34.00765582 -0.09693003 37.16105715 -0.1031676 40.31446838 -0.11029243 C51.30808207 -0.13479526 62.30164849 -0.14784121 73.29528809 -0.15138245 C83.55587744 -0.15502123 93.81616831 -0.18493904 104.07666636 -0.22678703 C112.87671138 -0.26142515 121.67665715 -0.27692974 130.47676992 -0.27762848 C135.73688108 -0.27842333 140.99668817 -0.28725759 146.25672913 -0.31562614 C151.20130568 -0.34169688 156.14532363 -0.34407388 161.08993721 -0.3279705 C162.9076566 -0.32614737 164.72540732 -0.33292411 166.5430584 -0.34878922 C169.0188786 -0.36908691 171.49271396 -0.35879667 173.96850586 -0.34057617 C174.6931102 -0.35377614 175.41771455 -0.36697611 176.1642766 -0.38057607 C178.17180634 -0.3466711 178.17180634 -0.3466711 181.48425293 0.27415466 C183.45398712 2.81257534 183.45398712 2.81257534 184.48425293 5.27415466 C183.49425293 5.60415466 182.50425293 5.93415466 181.48425293 6.27415466 C181.15425293 5.28415466 180.82425293 4.29415466 180.48425293 3.27415466 C158.81378376 3.25079518 137.14331666 3.23316048 115.47283745 3.22234249 C105.41088312 3.21718603 95.34893661 3.21015567 85.2869873 3.19871521 C76.51708729 3.18874857 67.74719294 3.18229651 58.97728741 3.18006617 C54.33363527 3.17876244 49.68999933 3.17569785 45.04635239 3.16842461 C40.67487558 3.16163318 36.30342166 3.15954408 31.93194008 3.16104698 C30.32835198 3.16077206 28.72476311 3.15878547 27.12117958 3.15494919 C24.92934035 3.14996318 22.73758713 3.15117446 20.54574585 3.15390015 C19.31976118 3.15297835 18.09377651 3.15205656 16.83064079 3.15110683 C13.62397226 3.26901714 10.6398314 3.72220473 7.48425293 4.27415466 C5.49609872 4.25627915 3.50792986 4.23805475 1.51989746 4.20970154 C-2.02919898 4.21300533 -5.02983606 4.47028358 -8.51574707 5.27415466 C-11.32792568 8.3184831 -12.26282731 11.39414508 -13.51574707 15.27415466 C-14.50574707 15.76915466 -14.50574707 15.76915466 -15.51574707 16.27415466 C-16.24143109 18.22524135 -16.24143109 18.22524135 -16.82824707 20.52415466 C-18.18350848 24.89574148 -20.02283271 27.2408343 -23.51574707 30.27415466 C-23.84574707 30.93415466 -24.17574707 31.59415466 -24.51574707 32.27415466 C-25.17574707 32.27415466 -25.83574707 32.27415466 -26.51574707 32.27415466 C-25.13394719 27.62115505 -23.21002878 23.71164504 -20.76574707 19.52415466 C-20.41230225 18.91797302 -20.05885742 18.31179138 -19.69470215 17.6872406 C-18.97887242 16.46213576 -18.26056183 15.23847683 -17.53967285 14.01634216 C-16.60230843 12.42143693 -15.68122423 10.81699229 -14.76184082 9.21165466 C-14.24750488 8.32477966 -13.73316895 7.43790466 -13.20324707 6.52415466 C-12.75336426 5.74556091 -12.30348145 4.96696716 -11.83996582 4.16477966 C-8.69191974 -0.32977581 -4.96688069 -0.01655446 0 0 Z " fill="#A1D96C" transform="translate(104.5157470703125,83.72584533691406)"/>
<path d="M0 0 C0.55107422 0.65121826 1.10214844 1.30243652 1.66992188 1.97338867 C4.47579467 4.41382769 5.62502118 4.48391349 9.28125 4.42578125 C10.79138672 4.41321289 10.79138672 4.41321289 12.33203125 4.40039062 C13.37746094 4.37138672 14.42289063 4.34238281 15.5 4.3125 C16.54542969 4.30283203 17.59085938 4.29316406 18.66796875 4.28320312 C22.95494246 4.22007867 26.85254564 4.12499155 31 3 C43.27745934 1.731538 55.67187888 1.89332739 68 1.875 C68.82097168 1.8724118 69.64194336 1.86982361 70.48779297 1.86715698 C72.84607289 1.8613013 75.20421902 1.86288789 77.5625 1.8671875 C78.64265381 1.86421913 78.64265381 1.86421913 79.74462891 1.8611908 C84.7694704 1.8847352 84.7694704 1.8847352 87 3 C86.38722388 5.96175123 85.74627478 7.38058783 84 10 C83.34 10 82.68 10 82 10 C81.7525 10.680625 81.505 11.36125 81.25 12.0625 C78.8325147 17.74359046 75.55871229 22.96871711 72 28 C71.67 28 71.34 28 71 28 C71 26.35 71 24.7 71 23 C72.32 22.34 73.64 21.68 75 21 C75 19.35 75 17.7 75 16 C75.99 16 76.98 16 78 16 C78.185625 14.2984375 78.185625 14.2984375 78.375 12.5625 C78.58125 11.386875 78.7875 10.21125 79 9 C79.66 8.67 80.32 8.34 81 8 C81.33 7.01 81.66 6.02 82 5 C80.89003662 5.15847412 79.78007324 5.31694824 78.63647461 5.48022461 C73.69785017 6.0947016 68.78837409 6.22476699 63.81640625 6.31640625 C62.85082794 6.3373233 61.88524963 6.35824036 60.89041138 6.37979126 C57.7811836 6.44551234 54.67188306 6.50462441 51.5625 6.5625 C50.50930573 6.58301422 49.45611145 6.60352844 48.3710022 6.62466431 C41.24753349 6.76300191 34.12390258 6.88635626 27 7 C26.20420532 7.01309204 25.40841064 7.02618408 24.58850098 7.03967285 C20.28819204 7.10908269 15.98826062 7.15812638 11.6875 7.1875 C10.69500244 7.20047119 9.70250488 7.21344238 8.67993164 7.22680664 C7.35916626 7.22861938 7.35916626 7.22861938 6.01171875 7.23046875 C5.27397217 7.23457764 4.53622559 7.23868652 3.77612305 7.24291992 C2 7 2 7 0 5 C-0.125 2.375 -0.125 2.375 0 0 Z " fill="#8ED845" transform="translate(118,363)"/>
<path d="M0 0 C1.45540648 0.01187867 1.45540648 0.01187867 2.94021511 0.02399731 C4.60817387 0.03032681 4.60817387 0.03032681 6.30982876 0.03678417 C7.53536465 0.05175442 8.76090054 0.06672466 10.02357388 0.08214855 C11.30973095 0.09000378 12.59588802 0.097859 13.92101955 0.10595226 C17.45403133 0.12788966 20.98681956 0.16244574 24.51970124 0.19948125 C28.21075479 0.23633335 31.90188458 0.26258421 35.59301662 0.29020214 C41.79129709 0.33817245 47.98946881 0.39394459 54.18763638 0.45470715 C61.36304875 0.52499174 68.53848695 0.58478938 75.71404082 0.63856632 C83.34086175 0.69582574 90.96760475 0.76063803 98.59434485 0.82772326 C100.79780388 0.84659518 103.00127041 0.86405613 105.20474339 0.8812151 C109.30197673 0.91357223 113.39908253 0.95438425 117.49623013 0.99621105 C119.3375703 1.00955738 119.3375703 1.00955738 121.21610928 1.02317333 C122.87983829 1.04219204 122.87983829 1.04219204 124.577178 1.06159496 C126.03201894 1.07517025 126.03201894 1.07517025 127.51625061 1.08901978 C129.69520473 1.2332716 129.69520473 1.2332716 130.69520473 2.2332716 C130.73584306 3.89944275 130.73792574 5.56715255 130.69520473 7.2332716 C130.14345703 6.58421384 129.59170933 5.93515608 129.023242 5.2664299 C126.23519216 2.83152614 125.08988259 2.72573721 121.44660854 2.70273876 C120.3840736 2.68686718 119.32153866 2.6709956 118.22680569 2.65464306 C116.48591419 2.65960545 116.48591419 2.65960545 114.70985317 2.66466808 C113.48341595 2.65295574 112.25697872 2.6412434 110.99337673 2.62917614 C107.63123455 2.60331058 104.27025066 2.59617769 100.90808678 2.60151458 C98.80540441 2.60436423 96.70277071 2.60270917 94.60008907 2.59974384 C88.01438506 2.59196522 81.42901185 2.60099365 74.84338164 2.63350338 C67.25317585 2.67075746 59.66580654 2.65242573 52.07581782 2.58568233 C46.20093239 2.53742667 40.32736372 2.53919138 34.45241666 2.57840687 C30.94674956 2.60069931 27.44410089 2.60214808 23.93866634 2.55132389 C10.31351645 1.64002835 10.31351645 1.64002835 -2.23251438 5.53825283 C-5.46090157 8.97157847 -6.80064421 12.79551584 -8.30479527 17.2332716 C-9.95549107 19.14487743 -9.95549107 19.14487743 -11.30479527 20.2332716 C-11.63479527 18.2532716 -11.96479527 16.2732716 -12.30479527 14.2332716 C-10.65479527 13.9032716 -9.00479527 13.5732716 -7.30479527 13.2332716 C-6.97479527 11.2532716 -6.64479527 9.2732716 -6.30479527 7.2332716 C-5.64479527 7.2332716 -4.98479527 7.2332716 -4.30479527 7.2332716 C-4.34604527 6.4495216 -4.38729527 5.6657716 -4.42979527 4.8582716 C-4.26543544 1.40671518 -3.48614692 0.35283788 0 0 Z " fill="#A3DB67" transform="translate(126.30479526519775,130.76672840118408)"/>
<path d="M0 0 C0.93423645 3.01031744 1.04449911 3.86650268 0 7 C-0.66 7 -1.32 7 -2 7 C-0.60240095 10.54518884 -0.60240095 10.54518884 1 14 C0.195625 13.979375 -0.60875 13.95875 -1.4375 13.9375 C-3.93354885 13.70366379 -3.93354885 13.70366379 -5 15 C11.5 15 28 15 45 15 C45 14.34 45 13.68 45 13 C45.66 13 46.32 13 47 13 C46.505 11.515 46.505 11.515 46 10 C46.66 9.01 47.32 8.02 48 7 C48.99 7 49.98 7 51 7 C49.63057432 10.99415824 47.85694902 13.88332834 45 17 C42.04601242 17.98466253 40.14750978 18.12127836 37.06958008 18.11352539 C36.06876907 18.11344986 35.06795807 18.11337433 34.03681946 18.11329651 C32.95861435 18.10813522 31.88040924 18.10297394 30.76953125 18.09765625 C29.66397385 18.0962413 28.55841644 18.09482635 27.4193573 18.09336853 C23.88371083 18.08776514 20.34812738 18.07521204 16.8125 18.0625 C14.41731862 18.05748544 12.02213625 18.05292246 9.62695312 18.04882812 C3.75128053 18.03779461 -2.12435523 18.02105316 -8 18 C-8.12199764 13.50143302 -8.0725983 11.35852526 -5.125 7.875 C-3.01707211 5.3393766 -1.37570674 3.00518463 0 0 Z " fill="#A7E072" transform="translate(293,307)"/>
<path d="M0 0 C0.33 0 0.66 0 1 0 C0.46051143 5.17909031 -0.26945507 10.46751651 -3 15 C-5.6875 16 -5.6875 16 -8 16 C-8 18.64 -8 21.28 -8 24 C-8.66 24 -9.32 24 -10 24 C-13.58164913 28.0437974 -16.40598808 32.06946125 -18 37.25 C-18.495 38.61125 -18.495 38.61125 -19 40 C-20.485 40.495 -20.485 40.495 -22 41 C-24.84472819 43.96325853 -26.0162111 47.39027893 -27.3515625 51.1953125 C-28 53 -28 53 -29 55 C-30.32 55 -31.64 55 -33 55 C-33 54.34 -33 53.68 -33 53 C-32.34 53 -31.68 53 -31 53 C-30.88374268 52.26120605 -30.76748535 51.52241211 -30.64770508 50.76123047 C-29.99701172 47.98726065 -29.14460263 46.21586805 -27.63671875 43.8203125 C-27.16169922 43.05589844 -26.68667969 42.29148437 -26.19726562 41.50390625 C-25.69904297 40.71886719 -25.20082031 39.93382812 -24.6875 39.125 C-23.71131171 37.56568467 -22.73603776 36.00579651 -21.76171875 34.4453125 C-21.29427246 33.69926758 -20.82682617 32.95322266 -20.34521484 32.18457031 C-18.48561942 29.16466834 -16.73588828 26.09243755 -15 23 C-14.34 23 -13.68 23 -13 23 C-12.77441406 22.16984375 -12.54882812 21.3396875 -12.31640625 20.484375 C-10.72495661 16.27199197 -8.4935855 12.93047389 -5.9375 9.25 C-2.75424846 4.75391447 -2.75424846 4.75391447 0 0 Z " fill="#9DD960" transform="translate(487,256)"/>
<path d="M0 0 C1.48225822 0.01665459 1.48225822 0.01665459 2.99446106 0.03364563 C4.11539658 0.03402328 5.23633209 0.03440094 6.39123535 0.03479004 C7.60068314 0.06059647 8.81013092 0.08640289 10.05622864 0.11299133 C11.29496231 0.12006607 12.53369598 0.12714081 13.80996704 0.13442993 C17.10009905 0.15769618 20.38900688 0.20260093 23.6787262 0.25794983 C27.03682982 0.30913889 30.39511277 0.331943 33.75349426 0.35713196 C40.3405628 0.41231918 46.9268112 0.4960364 53.51325989 0.60127258 C52.84413722 5.32511542 51.84976632 8.1051388 49.01325989 11.97627258 C48.38419739 12.85025696 47.75513489 13.72424133 47.10700989 14.62471008 C46.58107239 15.27697571 46.05513489 15.92924133 45.51325989 16.60127258 C45.18325989 16.60127258 44.85325989 16.60127258 44.51325989 16.60127258 C44.51325989 14.62127258 44.51325989 12.64127258 44.51325989 10.60127258 C45.17325989 10.60127258 45.83325989 10.60127258 46.51325989 10.60127258 C47.83325989 7.96127258 49.15325989 5.32127258 50.51325989 2.60127258 C33.68325989 2.60127258 16.85325989 2.60127258 -0.48674011 2.60127258 C-0.81674011 4.58127258 -1.14674011 6.56127258 -1.48674011 8.60127258 C-1.81674011 9.59127258 -2.14674011 10.58127258 -2.48674011 11.60127258 C-4.13674011 11.93127258 -5.78674011 12.26127258 -7.48674011 12.60127258 C-7.81674011 14.91127258 -8.14674011 17.22127258 -8.48674011 19.60127258 C-10.13674011 19.93127258 -11.78674011 20.26127258 -13.48674011 20.60127258 C-12.21567617 15.64412322 -9.90794153 11.98821375 -7.02189636 7.84736633 C-5.41147709 5.61210508 -5.41147709 5.61210508 -4.23336792 2.99636841 C-2.48674011 0.60127258 -2.48674011 0.60127258 0 0 Z " fill="#97CC70" transform="translate(207.4867401123047,179.3987274169922)"/>
<path d="M0 0 C1.4535556 2.90711121 0.71133997 4.89597103 0 8 C-2 10 -2 10 -4.35444069 10.23047829 C-5.34813353 10.22126036 -6.34182636 10.21204243 -7.3656311 10.20254517 C-8.50429123 10.19688034 -9.64295135 10.19121552 -10.81611633 10.18537903 C-12.07127548 10.16883774 -13.32643463 10.15229645 -14.61962891 10.13525391 C-15.93665298 10.12579239 -17.25367706 10.11633087 -18.61061096 10.10658264 C-22.2282676 10.08036469 -25.84569821 10.04169968 -29.46321535 10.00085878 C-33.24147928 9.96030037 -37.01983025 9.93110695 -40.79818726 9.90072632 C-47.95577709 9.84143787 -55.11322903 9.77187598 -62.27068841 9.69865549 C-70.41803353 9.61580632 -78.56546603 9.54436054 -86.71292615 9.47388959 C-103.47541454 9.3286471 -120.23773424 9.16902893 -137 9 C-137.33 8.34 -137.66 7.68 -138 7 C-93.78 7 -49.56 7 -4 7 C-3.34 5.35 -2.68 3.7 -2 2 C-1.34 1.34 -0.68 0.68 0 0 Z " fill="#94D847" transform="translate(423,362)"/>
<path d="M0 0 C0.66 0.99 1.32 1.98 2 3 C1.01 3 0.02 3 -1 3 C-1 4.32 -1 5.64 -1 7 C-0.01644531 6.99476318 0.96710938 6.98952637 1.98046875 6.98413086 C24.34429701 6.87589728 46.65227264 7.12123557 69 8 C69 8.33 69 8.66 69 9 C44.66096611 9.68622351 20.34936699 10.16896646 -4 10 C-5.125 6.25 -5.125 6.25 -4 4 C-3.34 4 -2.68 4 -2 4 C-2 3.34 -2 2.68 -2 2 C-1.34 2 -0.68 2 0 2 C0 1.34 0 0.68 0 0 Z " fill="#A4DE69" transform="translate(347,125)"/>
<path d="M0 0 C0 3.2002215 -0.63242392 5.61483471 -1.5 8.6875 C-1.7784375 9.68136719 -2.056875 10.67523438 -2.34375 11.69921875 C-2.5603125 12.45847656 -2.776875 13.21773437 -3 14 C-3.66 14 -4.32 14 -5 14 C-5.268125 14.7425 -5.53625 15.485 -5.8125 16.25 C-6.95276751 18.89061949 -8.09380306 20.85552844 -10 23 C-10.66 23 -11.32 23 -12 23 C-12.20625 23.845625 -12.4125 24.69125 -12.625 25.5625 C-14.33861355 29.84653389 -16.86932356 32.67242567 -20 36 C-20.99 35.67 -21.98 35.34 -23 35 C-22.46890625 34.21496094 -21.9378125 33.42992187 -21.390625 32.62109375 C-20.68421875 31.57050781 -19.9778125 30.51992187 -19.25 29.4375 C-18.55390625 28.40496094 -17.8578125 27.37242187 -17.140625 26.30859375 C-15.34212577 23.52879658 -13.68968386 20.71141921 -12.06689453 17.82739258 C-10.12457421 14.50055788 -7.96247559 11.31997107 -5.8125 8.125 C-5.36197266 7.44953125 -4.91144531 6.7740625 -4.44726562 6.078125 C-1.1409337 1.1409337 -1.1409337 1.1409337 0 0 Z " fill="#94D455" transform="translate(193,200)"/>
<path d="M0 0 C0.99 0 1.98 0 3 0 C3.12375 0.969375 3.2475 1.93875 3.375 2.9375 C3.684375 4.4534375 3.684375 4.4534375 4 6 C4.66 6.33 5.32 6.66 6 7 C5.67 7.66 5.34 8.32 5 9 C5.804375 9.20625 6.60875 9.4125 7.4375 9.625 C8.283125 10.07875 9.12875 10.5325 10 11 C10.33 12.98 10.66 14.96 11 17 C36.08 17.33 61.16 17.66 87 18 C87 18.33 87 18.66 87 19 C77.2730316 19.02315232 67.54606973 19.04092987 57.8190794 19.05181217 C53.30263484 19.05703465 48.78620911 19.06412084 44.26977539 19.07543945 C39.91260912 19.08629081 35.55546098 19.09228163 31.19828224 19.09487724 C29.53448005 19.09672742 27.87067887 19.10034027 26.20688438 19.10573006 C23.87968157 19.11297029 21.55255403 19.11398967 19.2253418 19.11352539 C18.53482224 19.11712067 17.84430267 19.12071594 17.13285828 19.12442017 C14.13284506 19.11792756 11.87290974 18.95763658 9 18 C7.55508889 15.68814223 6.27104036 13.4043106 5 11 C4.08389715 9.39551129 3.16722468 7.79134767 2.25 6.1875 C0 2.25 0 2.25 0 0 Z " fill="#82C72D" transform="translate(245,398)"/>
<path d="M0 0 C0.66 0 1.32 0 2 0 C0.57319984 4.94826438 -1.55889768 8.91904203 -4.25 13.25 C-4.65186523 13.90822754 -5.05373047 14.56645508 -5.46777344 15.24462891 C-6.27175761 16.56132196 -7.07802157 17.87662605 -7.88671875 19.19042969 C-12.09718961 26.03429154 -16.14984348 32.94705841 -20 40 C-21 37 -21 37 -21 33 C-20 32 -19 31 -18 30 C-18 28.68 -18 27.36 -18 26 C-17.34 26 -16.68 26 -16 26 C-16.0825 25.2575 -16.165 24.515 -16.25 23.75 C-15.92655478 20.19210255 -14.62196358 19.30414981 -12 17 C-11.67 16.34 -11.34 15.68 -11 15 C-10.34 15 -9.68 15 -9 15 C-9 13.68 -9 12.36 -9 11 C-7.68 11 -6.36 11 -5 11 C-4.87625 10.4225 -4.7525 9.845 -4.625 9.25 C-3.99351176 6.97664233 -3.11141809 5.0746471 -2 3 C-1.34 3 -0.68 3 0 3 C0 2.01 0 1.02 0 0 Z " fill="#81D02D" transform="translate(475,369)"/>
<path d="M0 0 C-0.103125 1.155 -0.20625 2.31 -0.3125 3.5 C-0.35305011 8.05783259 1.30059465 10.70249588 3.90625 14.3359375 C5 16 5 16 5 18 C5.66 18 6.32 18 7 18 C9.03435531 21.72965139 10 23.66905042 10 28 C10.66 28.33 11.32 28.66 12 29 C12.625 31.0625 12.625 31.0625 13 33 C14.485 32.505 14.485 32.505 16 32 C16.625 33.8125 16.625 33.8125 17 36 C16.34 36.99 15.68 37.98 15 39 C10.20018088 31.41318913 5.59120741 23.71418082 1 16 C0.64518555 15.40445313 0.29037109 14.80890625 -0.07519531 14.1953125 C-1.05381998 12.54906282 -2.02705039 10.89961004 -3 9.25 C-3.556875 8.30640625 -4.11375 7.3628125 -4.6875 6.390625 C-6 4 -6 4 -7 1 C-2.25 0 -2.25 0 0 0 Z " fill="#96DA5D" transform="translate(428,136)"/>
<path d="M0 0 C0.87454834 0.00523682 1.74909668 0.01047363 2.65014648 0.01586914 C3.59438477 0.0190918 4.53862305 0.02231445 5.51147461 0.02563477 C6.50469727 0.03401367 7.49791992 0.04239258 8.52124023 0.05102539 C9.51833008 0.05553711 10.51541992 0.06004883 11.54272461 0.06469727 C14.01478872 0.07652532 16.48673541 0.0930069 18.95874023 0.11352539 C18.95874023 0.44352539 18.95874023 0.77352539 18.95874023 1.11352539 C9.05874023 1.60852539 9.05874023 1.60852539 -1.04125977 2.11352539 C-2.03125977 5.08352539 -3.02125977 8.05352539 -4.04125977 11.11352539 C-5.3745931 12.44685872 -6.70792643 13.78019206 -8.04125977 15.11352539 C-8.57105705 16.57532208 -9.04481626 18.05796553 -9.47875977 19.55102539 C-10.76283032 23.86436738 -12.60665335 26.13084087 -16.04125977 29.11352539 C-16.37125977 29.77352539 -16.70125977 30.43352539 -17.04125977 31.11352539 C-17.70125977 31.11352539 -18.36125977 31.11352539 -19.04125977 31.11352539 C-17.65945988 26.46052578 -15.73554148 22.55101577 -13.29125977 18.36352539 C-12.76326782 17.45534058 -12.76326782 17.45534058 -12.22460938 16.52880859 C-11.16997835 14.71981182 -10.10701467 12.91598652 -9.04125977 11.11352539 C-8.43926758 10.09129883 -7.83727539 9.06907227 -7.21704102 8.01586914 C-2.53751674 0.1411249 -2.53751674 0.1411249 0 0 Z " fill="#93DA4B" transform="translate(97.041259765625,84.886474609375)"/>
<path d="M0 0 C1.18771723 3.42943519 0.80226223 5.37784675 -0.4375 8.75 C-0.86869141 9.94882812 -0.86869141 9.94882812 -1.30859375 11.171875 C-1.53675781 11.77515625 -1.76492188 12.3784375 -2 13 C-3.32 13 -4.64 13 -6 13 C-6.07476562 13.64066406 -6.14953125 14.28132813 -6.2265625 14.94140625 C-7.24233164 21.62357381 -9.14142714 25.35266944 -14 30 C-17.22411834 33.03206128 -17.22411834 33.03206128 -19 37 C-21.0625 38.1875 -21.0625 38.1875 -23 39 C-21.74954406 33.72029715 -19.0551518 30.03409052 -15.9375 25.71484375 C-11.8021787 19.92039153 -7.87511437 13.96720208 -4.75 7.5625 C-3.35145723 4.71546651 -2.0165624 2.41987488 0 0 Z " fill="#8BD346" transform="translate(318,266)"/>
<path d="M0 0 C1.87239463 0.00502635 3.74479058 0.00958724 5.6171875 0.01367188 C10.16149123 0.02458457 14.70573081 0.04178629 19.25 0.0625 C18.92 0.7225 18.59 1.3825 18.25 2.0625 C17.6108667 2.08755615 16.9717334 2.1126123 16.31323242 2.13842773 C13.35453255 2.25607147 10.39602406 2.37801778 7.4375 2.5 C5.93026367 2.55897461 5.93026367 2.55897461 4.39257812 2.61914062 C-0.57166573 2.82664921 -5.49466259 3.11408898 -10.4375 3.625 C-15.33811619 4.09746016 -20.03631599 4.00742422 -24.9375 3.625 C-26.07928711 3.54668945 -26.07928711 3.54668945 -27.24414062 3.46679688 C-29.07998026 3.3397891 -30.91509191 3.20232301 -32.75 3.0625 C-32.75 2.4025 -32.75 1.7425 -32.75 1.0625 C-21.84287715 -0.18358681 -10.95816613 -0.05146959 0 0 Z " fill="#8BD944" transform="translate(239.75,180.9375)"/>
<path d="M0 0 C0 0.33 0 0.66 0 1 C-19.37940102 2.47190279 -38.55272411 3.31069754 -58 3 C-43.39908836 -4.86415192 -16.44303304 -0.0864303 0 0 Z " fill="#C2E89C" transform="translate(203,365)"/>
<path d="M0 0 C3.875 1.75 3.875 1.75 5 4 C5.99 4.66 6.98 5.32 8 6 C8.68753301 7.65816784 9.35561283 9.32459336 10 11 C10.66 11.33 11.32 11.66 12 12 C12.33333333 14 12.66666667 16 13 18 C13.66 18.33 14.32 18.66 15 19 C15.05437607 20.58294782 15.09296271 22.16644256 15.125 23.75 C15.14820313 24.63171875 15.17140625 25.5134375 15.1953125 26.421875 C14.99139502 29.1135858 14.36551721 30.69904974 13 33 C12.34 33 11.68 33 11 33 C10.34 34.32 9.68 35.64 9 37 C8.34 37 7.68 37 7 37 C8.0063656 34.29055416 9.01615395 31.97576908 10.625 29.5625 C12.3399098 26.36653174 12.32000059 24.60329435 12 21 C10.68761758 17.96841852 10.68761758 17.96841852 8.8125 15.0625 C8.17828125 14.02480469 7.5440625 12.98710937 6.890625 11.91796875 C5.33666027 9.51959756 3.74619467 7.18282286 2.0625 4.875 C0 2 0 2 0 0 Z " fill="#9EDC5F" transform="translate(312,229)"/>
<path d="M0 0 C0.99 0.33 1.98 0.66 3 1 C3 1.99 3 2.98 3 4 C3.99 4.33 4.98 4.66 6 5 C6.33 5.99 6.66 6.98 7 8 C9.9537407 9.47687035 12.96308259 9.17880959 16.20361328 9.20532227 C17.3159584 9.22017166 17.3159584 9.22017166 18.45077515 9.23532104 C20.90725488 9.26696363 23.36375397 9.29170431 25.8203125 9.31640625 C27.521398 9.3369734 29.22247836 9.35796981 30.92355347 9.37937927 C35.40500736 9.43462464 39.88650756 9.48402303 44.36804199 9.53222656 C48.93941377 9.5824236 53.51071813 9.63811904 58.08203125 9.69335938 C67.05462994 9.80097109 76.02728711 9.90240936 85 10 C85 10.33 85 10.66 85 11 C74.78634597 11.18540946 64.57309251 11.32753047 54.35809803 11.41449738 C49.61467339 11.4562395 44.8724004 11.51284668 40.12963867 11.60351562 C35.55189914 11.69048147 30.97526661 11.73828148 26.39676476 11.75901794 C24.65070856 11.77379334 22.90471262 11.80264862 21.15912819 11.84584045 C7.47129818 12.17103535 7.47129818 12.17103535 3.82797241 9.27124023 C2.47564179 7.17545918 1.67283628 5.39299923 1 3 C0.67 2.01 0.34 1.02 0 0 Z " fill="#ACDF6E" transform="translate(88,407)"/>
<path d="M0 0 C1.85776765 3.13498292 2.20140476 5.37471432 2 9 C1.26007812 9 0.52015625 9 -0.2421875 9 C-3.43883908 10.15912578 -3.64919313 10.65500432 -5.1328125 13.5625 C-5.81513107 15.03333459 -6.47860197 16.51302904 -7.125 18 C-7.78508829 19.4832872 -8.45397767 20.96269806 -9.1328125 22.4375 C-9.42043457 23.09621094 -9.70805664 23.75492188 -10.00439453 24.43359375 C-11 26 -11 26 -14 27 C-14.0825 27.78375 -14.165 28.5675 -14.25 29.375 C-15 32 -15 32 -17.0625 33.3125 C-18.0215625 33.6528125 -18.0215625 33.6528125 -19 34 C-17.64532558 30.28792647 -15.9458091 27.21637711 -13.75 23.9375 C-10.54930751 19.01335771 -7.91607678 13.96270253 -5.35546875 8.68359375 C-3.78853948 5.58134474 -2.03184419 2.81332273 0 0 Z " fill="#9CD863" transform="translate(62,142)"/>
<path d="M0 0 C1.32 0 2.64 0 4 0 C3 2 2 4 1 6 C-24.41 6 -49.82 6 -76 6 C-76 5.67 -76 5.34 -76 5 C-50.92 5 -25.84 5 0 5 C0 3.35 0 1.7 0 0 Z " fill="#83CC39" transform="translate(173,411)"/>
<path d="M0 0 C5.41276779 6.24550129 9.2477886 13.55741504 13.125 20.8125 C15.12309726 24.52475438 17.16993278 27.84338656 20 31 C19.67 31.66 19.34 32.32 19 33 C17.515 32.505 17.515 32.505 16 32 C16 30.68 16 29.36 16 28 C15.38640625 27.92523438 14.7728125 27.85046875 14.140625 27.7734375 C12 27 12 27 10.734375 25.0390625 C10.24710937 23.84410156 10.24710937 23.84410156 9.75 22.625 C9.41484375 21.83351563 9.0796875 21.04203125 8.734375 20.2265625 C8 18 8 18 8 15 C7.34 15 6.68 15 6 15 C5.896875 14.360625 5.79375 13.72125 5.6875 13.0625 C5.460625 12.381875 5.23375 11.70125 5 11 C4.01 10.67 3.02 10.34 2 10 C0.47839986 6.3962102 0 3.94779314 0 0 Z " fill="#9AD55B" transform="translate(265,331)"/>
<path d="M0 0 C0.99 0 1.98 0 3 0 C3 0.66 3 1.32 3 2 C3.99 2 4.98 2 6 2 C6.15855469 2.66386719 6.31710937 3.32773438 6.48046875 4.01171875 C7.99115886 9.88231852 7.99115886 9.88231852 11.625 14.625 C14.97233334 17.97233334 14.76383775 20.35547576 15 25 C12.27573689 22.64722731 11.1858237 20.37503669 10 17 C9.34 17 8.68 17 8 17 C7.59007812 16.24074219 7.18015625 15.48148438 6.7578125 14.69921875 C6.21898437 13.70535156 5.68015625 12.71148437 5.125 11.6875 C4.32449219 10.20830078 4.32449219 10.20830078 3.5078125 8.69921875 C1.99277874 5.90413542 1.99277874 5.90413542 0 3 C0 2.01 0 1.02 0 0 Z " fill="#9ED962" transform="translate(297,204)"/>
<path d="M0 0 C1.05692047 0.00424484 1.05692047 0.00424484 2.13519287 0.00857544 C4.3767626 0.01973449 6.61792686 0.04483057 8.859375 0.0703125 C10.38280671 0.08034786 11.90624471 0.08947274 13.4296875 0.09765625 C17.15638086 0.11965959 20.88283833 0.15415978 24.609375 0.1953125 C25.269375 1.8453125 25.929375 3.4953125 26.609375 5.1953125 C25.949375 5.5253125 25.289375 5.8553125 24.609375 6.1953125 C23.949375 5.2053125 23.289375 4.2153125 22.609375 3.1953125 C19.99260008 2.85738714 17.60001108 2.70645161 14.9765625 2.68359375 C14.22472687 2.66564255 13.47289124 2.64769135 12.69827271 2.62919617 C10.29369744 2.57495469 7.88932215 2.54115458 5.484375 2.5078125 C3.85544083 2.47465148 2.2265331 2.44016295 0.59765625 2.40429688 C-3.39829346 2.31922088 -7.39418246 2.25247672 -11.390625 2.1953125 C-7.65430857 -0.20423294 -4.36267002 -0.03462437 0 0 Z " fill="#8FD650" transform="translate(395.390625,130.8046875)"/>
<path d="M0 0 C0.66 0 1.32 0 2 0 C2 0.66 2 1.32 2 2 C2.99 2 3.98 2 5 2 C5.33 3.98 5.66 5.96 6 8 C6.66 8 7.32 8 8 8 C8 7.34 8 6.68 8 6 C11 7 11 7 12 8 C12.66 8.33 13.32 8.66 14 9 C13.62875 10.0725 13.2575 11.145 12.875 12.25 C11.68508268 15.81629347 11.68508268 15.81629347 12.875 18.4375 C13.431875 19.2109375 13.431875 19.2109375 14 20 C13.34 20.33 12.68 20.66 12 21 C9.99645958 17.68962903 7.99776448 14.37635933 6 11.0625 C5.42765625 10.11697266 4.8553125 9.17144531 4.265625 8.19726562 C3.72421875 7.29814453 3.1828125 6.39902344 2.625 5.47265625 C2.12226563 4.64000244 1.61953125 3.80734863 1.1015625 2.94946289 C0 1 0 1 0 0 Z " fill="#86D63F" transform="translate(266,154)"/>
<path d="M0 0 C2.475 0.495 2.475 0.495 5 1 C5.28875 2.11375 5.5775 3.2275 5.875 4.375 C6.69241329 8.00291092 6.69241329 8.00291092 9 10 C9 10.99 9 11.98 9 13 C9.99 13.33 10.98 13.66 12 14 C13.640625 16.58203125 13.640625 16.58203125 15.25 19.8125 C15.79140625 20.87082031 16.3328125 21.92914063 16.890625 23.01953125 C18.00903639 26.02427735 18.20681097 27.10225041 17 30 C16.34 29.67 15.68 29.34 15 29 C14.6606362 27.33455078 14.32826316 25.66767269 14 24 C12.88822241 21.732323 12.88822241 21.732323 11.4375 19.5 C10.90769531 18.64535156 10.37789063 17.79070312 9.83203125 16.91015625 C9.22746094 15.94980469 8.62289063 14.98945313 8 14 C6.9032989 12.23753445 5.80997786 10.47304157 4.71899414 8.70703125 C3.66294118 6.99886971 2.60110726 5.29428636 1.5390625 3.58984375 C0 1 0 1 0 0 Z " fill="#9CDC5F" transform="translate(473,226)"/>
<path d="M0 0 C0.94696598 2.55680815 1.04509772 3.83600828 0.3125 6.5 C-1 9 -1 9 -3.125 10.9375 C-5.26452632 12.90676181 -5.26452632 12.90676181 -5.4375 15.9375 C-4.95148866 19.33957935 -4.03897287 21.25522883 -2 24 C-1.34 24.33 -0.68 24.66 0 25 C0 26.98 0 28.96 0 31 C-1.35683751 29.3524116 -2.68456721 27.68083079 -4 26 C-5.11375 24.6078125 -5.11375 24.6078125 -6.25 23.1875 C-8.58611823 18.93242751 -8.53519042 16.81671376 -8 12 C-6.625 9 -6.625 9 -5 7 C-4.34 7 -3.68 7 -3 7 C-2.690625 6.21625 -2.38125 5.4325 -2.0625 4.625 C-1 2 -1 2 0 0 Z " fill="#98D65B" transform="translate(169,236)"/>
<path d="M0 0 C0.66 0 1.32 0 2 0 C0.70383226 5.05505417 -1.69085827 8.74573824 -4.66015625 12.94921875 C-6.15915825 15.05389843 -6.15915825 15.05389843 -7 18 C-7.66 18 -8.32 18 -9 18 C-9.28875 18.763125 -9.5775 19.52625 -9.875 20.3125 C-11 23 -11 23 -13 26 C-13.39013716 27.9896995 -13.73202649 29.99019869 -14 32 C-14.33 32 -14.66 32 -15 32 C-15 29.03 -15 26.06 -15 23 C-14.34 23 -13.68 23 -13 23 C-13 22.34 -13 21.68 -13 21 C-12.34 21 -11.68 21 -11 21 C-11 19.35 -11 17.7 -11 16 C-10.34 16 -9.68 16 -9 16 C-8.855625 15.38125 -8.71125 14.7625 -8.5625 14.125 C-8 12 -8 12 -7 10 C-6.34 10 -5.68 10 -5 10 C-5 9.01 -5 8.02 -5 7 C-4.34 7 -3.68 7 -3 7 C-2.67 6.01 -2.34 5.02 -2 4 C-1.34870203 2.65909241 -0.68486725 1.32407669 0 0 Z " fill="#9CD95D" transform="translate(70,223)"/>
<path d="M0 0 C1.32 0.33 2.64 0.66 4 1 C4 2.32 4 3.64 4 5 C5.32 4.67 6.64 4.34 8 4 C8 4.99 8 5.98 8 7 C8.30791692 8.671549 8.64386903 10.33805547 9 12 C9.33333333 13.66666667 9.66666667 15.33333333 10 17 C10.99 17 11.98 17 13 17 C13.99 20.3 14.98 23.6 16 27 C10.73648022 21.73648022 7.06592646 15.48313841 3.87890625 8.7890625 C2.92539189 6.78029848 2.92539189 6.78029848 1.25 4.125 C0 2 0 2 0 0 Z " fill="#A3DF6D" transform="translate(172,272)"/>
<path d="M0 0 C2 2 2 2 2 4.125 C0.75196114 7.71311172 -1.29208477 10.10579129 -3.6328125 13.0625 C-5.23278429 15.3298886 -5.82699619 17.23193903 -6 20 C-6.66 20 -7.32 20 -8 20 C-8 20.66 -8 21.32 -8 22 C-9.32 22.33 -10.64 22.66 -12 23 C-10.68386288 19.47149904 -9.11613059 16.38053066 -7.125 13.1875 C-4.4951139 8.88815189 -2.18577816 4.5396931 0 0 Z " fill="#9FD965" transform="translate(33,192)"/>
<path d="M0 0 C7.28421548 -0.02312916 14.5684231 -0.04091801 21.85266781 -0.05181217 C25.23471813 -0.05703975 28.6167434 -0.06413511 31.9987793 -0.07543945 C35.88329777 -0.08834267 39.76780597 -0.09322924 43.65234375 -0.09765625 C44.87211411 -0.10281754 46.09188446 -0.10797882 47.34861755 -0.11329651 C49.03024742 -0.11340981 49.03024742 -0.11340981 50.74584961 -0.11352539 C51.73846298 -0.115746 52.73107635 -0.11796661 53.75376892 -0.12025452 C56 0 56 0 57 1 C57.04063832 2.66617115 57.042721 4.33388095 57 6 C56.4497113 5.35125916 55.89942261 4.70251831 55.3324585 4.03411865 C52.53012786 1.59022821 51.34212087 1.48897258 47.68066406 1.45410156 C46.61986633 1.43438293 45.5590686 1.41466431 44.46612549 1.39434814 C43.32746033 1.39311951 42.18879517 1.39189087 41.015625 1.390625 C39.25952911 1.36582062 39.25952911 1.36582062 37.46795654 1.34051514 C33.72858489 1.29192919 29.98962024 1.27063967 26.25 1.25 C23.71482316 1.22184934 21.17966536 1.19192321 18.64453125 1.16015625 C12.42976165 1.08616719 6.21510701 1.03458676 0 1 C0 0.67 0 0.34 0 0 Z " fill="#95D556" transform="translate(200,132)"/>
<path d="M0 0 C0.80872559 0.97114746 0.80872559 0.97114746 1.63378906 1.96191406 C4.56760473 4.48889437 6.03370318 4.53130006 9.859375 4.609375 C10.97441406 4.64160156 12.08945313 4.67382812 13.23828125 4.70703125 C14.97658203 4.72830078 14.97658203 4.72830078 16.75 4.75 C17.92433594 4.77964844 19.09867188 4.80929687 20.30859375 4.83984375 C23.20579822 4.91050727 26.10219955 4.96322266 29 5 C26.35300384 7.64699616 25.09605591 7.25749767 21.40625 7.265625 C20.29378906 7.26820313 19.18132812 7.27078125 18.03515625 7.2734375 C16.86855469 7.26570313 15.70195312 7.25796875 14.5 7.25 C13.33339844 7.25773437 12.16679687 7.26546875 10.96484375 7.2734375 C9.85238281 7.27085937 8.73992187 7.26828125 7.59375 7.265625 C6.56958984 7.26336914 5.54542969 7.26111328 4.49023438 7.25878906 C2 7 2 7 0 5 C-0.125 2.375 -0.125 2.375 0 0 Z " fill="#9AD157" transform="translate(118,363)"/>
<path d="M0 0 C0 3.2002215 -0.63242392 5.61483471 -1.5 8.6875 C-1.7784375 9.68136719 -2.056875 10.67523438 -2.34375 11.69921875 C-2.66859375 12.83810547 -2.66859375 12.83810547 -3 14 C-3.66 14 -4.32 14 -5 14 C-5.4021875 15.11375 -5.4021875 15.11375 -5.8125 16.25 C-6.94229421 18.86636554 -8.20893202 20.80187111 -10 23 C-10.66 22.67 -11.32 22.34 -12 22 C-11.34 20.35 -10.68 18.7 -10 17 C-9.34 17 -8.68 17 -8 17 C-7.979375 16.05125 -7.95875 15.1025 -7.9375 14.125 C-7.20252086 8.53226808 -3.34719616 4.34348954 0 0 Z " fill="#7BD22D" transform="translate(193,200)"/>
<path d="M0 0 C0.99 0 1.98 0 3 0 C2.38722388 2.96175123 1.74627478 4.38058783 0 7 C-0.66 7 -1.32 7 -2 7 C-2.2475 7.680625 -2.495 8.36125 -2.75 9.0625 C-5.1674853 14.74359046 -8.44128771 19.96871711 -12 25 C-12.33 25 -12.66 25 -13 25 C-13 23.35 -13 21.7 -13 20 C-11.68 19.34 -10.36 18.68 -9 18 C-9 16.35 -9 14.7 -9 13 C-8.01 13 -7.02 13 -6 13 C-5.67 10.69 -5.34 8.38 -5 6 C-3.68 5.67 -2.36 5.34 -1 5 C-0.67 3.35 -0.34 1.7 0 0 Z " fill="#97D85E" transform="translate(202,366)"/>
<path d="M0 0 C1.00847211 1.32693699 2.00549539 2.66256277 3 4 C3.59748047 4.74636719 3.59748047 4.74636719 4.20703125 5.5078125 C7.69028367 10.03288361 9.471229 14.51879665 11 20 C10.01 19.67 9.02 19.34 8 19 C7.67 18.34 7.34 17.68 7 17 C6.34 17.33 5.68 17.66 5 18 C5 16.02 5 14.04 5 12 C4.34 12 3.68 12 3 12 C3 10.68 3 9.36 3 8 C2.01 7.67 1.02 7.34 0 7 C0 4.69 0 2.38 0 0 Z " fill="#9FD665" transform="translate(103,336)"/>
<path d="M0 0 C3.31630158 2.21086772 4.15633535 4.10596925 5.81640625 7.6328125 C7.59595767 11.19191533 9.71955403 14.52681164 11.828125 17.8984375 C13 20 13 20 13 22 C12.01 22 11.02 22 10 22 C9.67 20.02 9.34 18.04 9 16 C8.34 16 7.68 16 7 16 C2.93058325 12.84948381 1.25545488 8.86964316 0 4 C0 2.68 0 1.36 0 0 Z " fill="#9DD55E" transform="translate(338,175)"/>
<path d="M0 0 C0.99 0 1.98 0 3 0 C1.11673882 8.40082194 -4.11861018 16.03024656 -9 23 C-9.33 23 -9.66 23 -10 23 C-10.33 20.69 -10.66 18.38 -11 16 C-9.68 16 -8.36 16 -7 16 C-6.34 13.69 -5.68 11.38 -5 9 C-3.68 8.67 -2.36 8.34 -1 8 C-0.67 5.36 -0.34 2.72 0 0 Z " fill="#8ACE41" transform="translate(487,346)"/>
<path d="M0 0 C1.65 0 3.3 0 5 0 C3.41807245 4.50505453 1.08302964 8.27229941 -1.5 12.25 C-1.90347656 12.88679688 -2.30695313 13.52359375 -2.72265625 14.1796875 C-5.74946036 18.87473018 -5.74946036 18.87473018 -8 20 C-8.33 18.35 -8.66 16.7 -9 15 C-7.68 15 -6.36 15 -5 15 C-5 13.68 -5 12.36 -5 11 C-4.34 11 -3.68 11 -3 11 C-3 10.01 -3 9.02 -3 8 C-2.34 8 -1.68 8 -1 8 C-0.67 5.36 -0.34 2.72 0 0 Z " fill="#95D552" transform="translate(364,273)"/>
<path d="M0 0 C0.66 0 1.32 0 2 0 C1.34 2.31 0.68 4.62 0 7 C-1.65 7.33 -3.3 7.66 -5 8 C-5.33 10.31 -5.66 12.62 -6 15 C-7.65 15.33 -9.3 15.66 -11 16 C-9.68535639 11.39874735 -7.96668552 7.77578157 -5 4 C-4.01 4 -3.02 4 -2 4 C-1.34 2.68 -0.68 1.36 0 0 Z " fill="#91D64E" transform="translate(205,184)"/>
<path d="M0 0 C5.04482435 6.01498288 9.98022497 12.71701317 13 20 C12.67 20.66 12.34 21.32 12 22 C6.95589684 18.38140426 5.36215772 16.24322288 4 10 C3.37530495 8.64649406 2.7283669 7.30065517 2 6 C1.01 6 0.02 6 -1 6 C-0.67 4.02 -0.34 2.04 0 0 Z " fill="#9CD95A" transform="translate(477,134)"/>
<path d="M0 0 C2 2 2 2 2.125 4.625 C2.08375 5.40875 2.0425 6.1925 2 7 C2.66 7 3.32 7 4 7 C4 8.32 4 9.64 4 11 C4.66 11 5.32 11 6 11 C6.3403125 12.051875 6.3403125 12.051875 6.6875 13.125 C7.8652236 15.70477551 8.82215033 17.02615994 10.6875 19.0625 C13 22 13 22 12.8125 24.375 C12.544375 24.91125 12.27625 25.4475 12 26 C7.66278339 20.88828042 0 11.13139117 0 4 C-0.66 3.67 -1.32 3.34 -2 3 C-1.34 3 -0.68 3 0 3 C0 2.01 0 1.02 0 0 Z " fill="#A4DD6C" transform="translate(2,255)"/>
<path d="M0 0 C0.66 0.33 1.32 0.66 2 1 C2 4.93800217 0.22573096 7.2802376 -1.8125 10.5 C-2.16892578 11.08136719 -2.52535156 11.66273438 -2.89257812 12.26171875 C-4.68947146 15.1433422 -6.44576458 17.743893 -9 20 C-9.33 18.02 -9.66 16.04 -10 14 C-8.35 13.67 -6.7 13.34 -5 13 C-4.67 11.02 -4.34 9.04 -4 7 C-3.34 7 -2.68 7 -2 7 C-2.04125 6.21625 -2.0825 5.4325 -2.125 4.625 C-2 2 -2 2 0 0 Z " fill="#95DA4C" transform="translate(124,131)"/>
<path d="M0 0 C2.92879371 0.62759865 5.36095629 1.58622659 8 3 C7.773125 3.886875 7.54625 4.77375 7.3125 5.6875 C6.94020359 9.63384198 7.90334443 10.76765599 10 14 C9.67 14.99 9.34 15.98 9 17 C0 3.89320388 0 3.89320388 0 0 Z " fill="#92D851" transform="translate(454,193)"/>
<path d="M0 0 C0.33 0 0.66 0 1 0 C0.46051143 5.17909031 -0.26945507 10.46751651 -3 15 C-5.6875 16 -5.6875 16 -8 16 C-6.44584521 10.0942118 -3.40465533 5.02261107 0 0 Z " fill="#8CD543" transform="translate(487,256)"/>
<path d="M0 0 C1.32 0 2.64 0 4 0 C4.144375 0.7425 4.28875 1.485 4.4375 2.25 C4.90187492 4.52027739 5.41863569 6.75759479 6 9 C6.66 9 7.32 9 8 9 C8.12375 9.5775 8.2475 10.155 8.375 10.75 C9.32538932 14.17140155 10.48155568 16.48155568 13 19 C12.67 19.99 12.34 20.98 12 22 C10.55862125 19.79411638 9.12184635 17.58545003 7.6875 15.375 C7.28337891 14.75753906 6.87925781 14.14007813 6.46289062 13.50390625 C0 3.52057927 0 3.52057927 0 0 Z " fill="#ADDE6E" transform="translate(201,322)"/>
<path d="M0 0 C1.97119141 -0.34057617 1.97119141 -0.34057617 4.3515625 -0.29296875 C5.20234375 -0.28330078 6.053125 -0.27363281 6.9296875 -0.26367188 C7.81914062 -0.23853516 8.70859375 -0.21339844 9.625 -0.1875 C10.97078125 -0.16719727 10.97078125 -0.16719727 12.34375 -0.14648438 C14.56309789 -0.11106925 16.78125188 -0.06168461 19 0 C19 0.33 19 0.66 19 1 C15.16275828 1.90413673 11.62497726 2.10576898 7.6875 2.0625 C6.08455078 2.04896484 6.08455078 2.04896484 4.44921875 2.03515625 C3.64097656 2.02355469 2.83273438 2.01195312 2 2 C2 2.66 2 3.32 2 4 C0.125 6.125 0.125 6.125 -2 8 C-2.66 8 -3.32 8 -4 8 C-2.87548273 5.0280615 -1.77706209 2.66559313 0 0 Z " fill="#B6DF87" transform="translate(205,180)"/>
<path d="M0 0 C0.33 2.64 0.66 5.28 1 8 C1.99 8.33 2.98 8.66 4 9 C4 10.32 4 11.64 4 13 C5.65 13 7.3 13 9 13 C9.33 13.66 9.66 14.32 10 15 C9.34 15 8.68 15 8 15 C8.33 16.65 8.66 18.3 9 20 C8.34 20.33 7.68 20.66 7 21 C6.61328125 20.28714844 6.2265625 19.57429688 5.828125 18.83984375 C2.30010595 12.34723836 2.30010595 12.34723836 -1.375 5.9375 C-3 3 -3 3 -3 1 C-1 0 -1 0 0 0 Z " fill="#9ADC60" transform="translate(43,323)"/>
<path d="M0 0 C0.66 0.99 1.32 1.98 2 3 C1.57847656 3.83144531 1.15695312 4.66289062 0.72265625 5.51953125 C0.17480469 6.60621094 -0.37304688 7.69289062 -0.9375 8.8125 C-1.48277344 9.89144531 -2.02804688 10.97039062 -2.58984375 12.08203125 C-4.0585207 14.96211527 -4.0585207 14.96211527 -5 18 C-5.66 18 -6.32 18 -7 18 C-6.49228528 12.03435204 -4.61407872 7.36190101 -2 2 C-1.34 2 -0.68 2 0 2 C0 1.34 0 0.68 0 0 Z " fill="#97D657" transform="translate(9,234)"/>
<path d="M0 0 C0.66 0 1.32 0 2 0 C2 1.32 2 2.64 2 4 C11.9 4.33 21.8 4.66 32 5 C32 5.33 32 5.66 32 6 C21.44 6 10.88 6 0 6 C-1 2 -1 2 0 0 Z " fill="#C9EE9D" transform="translate(343,129)"/>
<path d="M0 0 C1 2 1 2 0.546875 3.91015625 C0.28390625 4.62042969 0.0209375 5.33070312 -0.25 6.0625 C-0.50265625 6.77535156 -0.7553125 7.48820312 -1.015625 8.22265625 C-2 10 -2 10 -5 11 C-5.33 12.65 -5.66 14.3 -6 16 C-6.99 16.33 -7.98 16.66 -9 17 C-9 17.99 -9 18.98 -9 20 C-9.66 20 -10.32 20 -11 20 C-9.70496796 15.61631654 -8.01031194 12.12583402 -5.5 8.3125 C-4.8915625 7.38050781 -4.283125 6.44851562 -3.65625 5.48828125 C-2.43822515 3.65837128 -1.21935103 1.82902654 0 0 Z " fill="#A1D76A" transform="translate(361,101)"/>
<path d="M0 0 C3.51535847 2.34357231 4.29566758 4.11521628 6.125 7.875 C6.64320313 8.92429687 7.16140625 9.97359375 7.6953125 11.0546875 C8.73894173 13.41066486 9.50227179 15.48707954 10 18 C9.01 18 8.02 18 7 18 C7 17.01 7 16.02 7 15 C6.34 15 5.68 15 5 15 C3.50178941 11.62902617 3 9.79557881 3 6 C2.34 6 1.68 6 1 6 C0.67 4.02 0.34 2.04 0 0 Z " fill="#95D24F" transform="translate(452,91)"/>
<path d="M0 0 C0.66 0.33 1.32 0.66 2 1 C1.67 2.32 1.34 3.64 1 5 C0.34 5 -0.32 5 -1 5 C-1.66 7.97 -2.32 10.94 -3 14 C-4.65 14.33 -6.3 14.66 -8 15 C-6.51194289 9.19657726 -3.40902445 4.82409121 0 0 Z " fill="#ABDB6C" transform="translate(370,86)"/>
<path d="M0 0 C1.875 0.25 1.875 0.25 4 1 C5.125 3 5.125 3 6 5 C6.66 5.33 7.32 5.66 8 6 C8.4140625 8.06640625 8.4140625 8.06640625 8.625 10.5625 C8.69976562 11.38878906 8.77453125 12.21507812 8.8515625 13.06640625 C8.90054687 13.70449219 8.94953125 14.34257812 9 15 C0 4.33333333 0 4.33333333 0 0 Z " fill="#98D75D" transform="translate(15,282)"/>
<path d="M0 0 C0.99 0.33 1.98 0.66 3 1 C3 1.99 3 2.98 3 4 C6.71599191 4.20086443 7.77208445 4.1519437 11 2 C9.83269511 5.95087809 8.55162546 8.78425284 6 12 C4.99466333 10.37829621 3.99588093 8.75252763 3 7.125 C2.443125 6.22007812 1.88625 5.31515625 1.3125 4.3828125 C0 2 0 2 0 0 Z " fill="#91D94E" transform="translate(238,386)"/>
<path d="M0 0 C0.86931152 0.01047363 1.73862305 0.02094727 2.63427734 0.03173828 C3.57529297 0.03818359 4.51630859 0.04462891 5.48583984 0.05126953 C6.47068359 0.06802734 7.45552734 0.08478516 8.47021484 0.10205078 C9.46279297 0.11107422 10.45537109 0.12009766 11.47802734 0.12939453 C13.93399618 0.15300962 16.38948653 0.18594279 18.84521484 0.22705078 C18.84521484 0.55705078 18.84521484 0.88705078 18.84521484 1.22705078 C12.24521484 1.55705078 5.64521484 1.88705078 -1.15478516 2.22705078 C-1.81478516 3.54705078 -2.47478516 4.86705078 -3.15478516 6.22705078 C-4.14478516 6.55705078 -5.13478516 6.88705078 -6.15478516 7.22705078 C-3.63323215 0.38283547 -3.63323215 0.38283547 0 0 Z " fill="#9DD86D" transform="translate(97.15478515625,84.77294921875)"/>
<path d="M0 0 C0.99 0 1.98 0 3 0 C3.12375 0.969375 3.2475 1.93875 3.375 2.9375 C3.684375 4.4534375 3.684375 4.4534375 4 6 C4.66 6.33 5.32 6.66 6 7 C5.67 7.66 5.34 8.32 5 9 C5.804375 9.2475 6.60875 9.495 7.4375 9.75 C10 11 10 11 10.9375 12.9375 C11 15 11 15 9 18 C7.66127551 15.66962774 6.32926242 13.33576463 5 11 C4.54496094 10.20851563 4.08992187 9.41703125 3.62109375 8.6015625 C2.94240234 7.40660156 2.94240234 7.40660156 2.25 6.1875 C1.82203125 5.43855469 1.3940625 4.68960937 0.953125 3.91796875 C0 2 0 2 0 0 Z " fill="#9BDC64" transform="translate(245,398)"/>
<path d="M0 0 C4.77235098 4.21089792 8.28419455 9.23146586 11 15 C10.67 15.66 10.34 16.32 10 17 C8.66666667 17 7.33333333 17 6 17 C6 14.36 6 11.72 6 9 C5.01 9 4.02 9 3 9 C0 2.25 0 2.25 0 0 Z " fill="#A7DD6E" transform="translate(230,274)"/>
<path d="M0 0 C9 10.66666667 9 10.66666667 9 15 C8.34 15 7.68 15 7 15 C6.67 15.66 6.34 16.32 6 17 C4.66666667 14.33333333 3.33333333 11.66666667 2 9 C2.33 8.01 2.66 7.02 3 6 C2.34 6 1.68 6 1 6 C0.67 4.02 0.34 2.04 0 0 Z " fill="#9CD85E" transform="translate(63,267)"/>
<path d="M0 0 C0.99 0.33 1.98 0.66 3 1 C1.19272453 3.50381568 -0.62166673 6.00238547 -2.4375 8.5 C-2.95376953 9.21542969 -3.47003906 9.93085938 -4.00195312 10.66796875 C-4.49501953 11.34472656 -4.98808594 12.02148438 -5.49609375 12.71875 C-5.95169678 13.34716797 -6.4072998 13.97558594 -6.87670898 14.62304688 C-7.24739502 15.07744141 -7.61808105 15.53183594 -8 16 C-8.33 16 -8.66 16 -9 16 C-9 14.35 -9 12.7 -9 11 C-8.01 11 -7.02 11 -6 11 C-6 10.34 -6 9.68 -6 9 C-6.66 8.67 -7.32 8.34 -8 8 C-6.68 8 -5.36 8 -4 8 C-3.67 6.35 -3.34 4.7 -3 3 C-2.34 3 -1.68 3 -1 3 C-0.67 2.01 -0.34 1.02 0 0 Z " fill="#A6DD70" transform="translate(378,257)"/>
<path d="M0 0 C10.23 0 20.46 0 31 0 C31.66 1.65 32.32 3.3 33 5 C32.01 5 31.02 5 30 5 C29.67 4.01 29.34 3.02 29 2 C19.43 1.67 9.86 1.34 0 1 C0 0.67 0 0.34 0 0 Z " fill="#7DC23C" transform="translate(256,85)"/>
<path d="M0 0 C2.2245916 2.87536765 4.18668733 5.82393882 6.0625 8.9375 C6.82240234 10.18853516 6.82240234 10.18853516 7.59765625 11.46484375 C8.95802119 13.92411074 10.01677301 16.37022063 11 19 C10.34 18.67 9.68 18.34 9 18 C9 17.34 9 16.68 9 16 C7.68 15.67 6.36 15.34 5 15 C4.71125 13.865625 4.4225 12.73125 4.125 11.5625 C3.75375 10.386875 3.3825 9.21125 3 8 C2.34 7.67 1.68 7.34 1 7 C0.59270772 4.67843403 0.25561323 2.3431213 0 0 Z " fill="#A4DC69" transform="translate(351,197)"/>
<path d="M0 0 C2.8125 0.4375 2.8125 0.4375 6 2 C7.44437265 4.89403604 8.26307084 7.85835465 9 11 C8.34 11.66 7.68 12.32 7 13 C5.82786955 11.21190303 4.66244474 9.41940875 3.5 7.625 C2.8503125 6.62726563 2.200625 5.62953125 1.53125 4.6015625 C0 2 0 2 0 0 Z " fill="#99DB56" transform="translate(285,185)"/>
<path d="M0 0 C1.23925303 3.48738512 0.7983396 5.24703368 -0.75 8.5625 C-1.09546875 9.32691406 -1.4409375 10.09132812 -1.796875 10.87890625 C-3.00009965 13.00017568 -4.12117216 14.45243918 -6 16 C-6.66 16 -7.32 16 -8 16 C-6.57250019 12.20950293 -4.83763458 8.72877544 -2.875 5.1875 C-2.33617187 4.21167969 -1.79734375 3.23585937 -1.2421875 2.23046875 C-0.83226562 1.49441406 -0.42234375 0.75835937 0 0 Z " fill="#A5DD6A" transform="translate(42,176)"/>
<path d="M0 0 C0.33 0.99 0.66 1.98 1 3 C1.99 3 2.98 3 4 3 C4.33 6.3 4.66 9.6 5 13 C1.74190431 9.74190431 0.13405085 7.04733782 -2 3 C-2 2.34 -2 1.68 -2 1 C-1.34 0.67 -0.68 0.34 0 0 Z " fill="#95DC58" transform="translate(70,371)"/>
<path d="M0 0 C0.99 0 1.98 0 3 0 C1.62096887 4.02217412 0.02027416 6.97972584 -3 10 C-6.234375 10.48828125 -6.234375 10.48828125 -9.75 10.3125 C-10.92046875 10.26738281 -12.0909375 10.22226562 -13.296875 10.17578125 C-14.18890625 10.11777344 -15.0809375 10.05976563 -16 10 C-16 9.67 -16 9.34 -16 9 C-9.565 8.505 -9.565 8.505 -3 8 C-3 7.34 -3 6.68 -3 6 C-2.34 6 -1.68 6 -1 6 C-1.33 5.01 -1.66 4.02 -2 3 C-1.34 2.01 -0.68 1.02 0 0 Z " fill="#94D15B" transform="translate(341,314)"/>
<path d="M0 0 C0.33 0 0.66 0 1 0 C1.50265724 5.27790097 0.25108731 7.86225252 -3 12 C-3.33 12 -3.66 12 -4 12 C-4.33 9.69 -4.66 7.38 -5 5 C-4.360625 4.731875 -3.72125 4.46375 -3.0625 4.1875 C-0.66868314 3.11332248 -0.66868314 3.11332248 0 0 Z " fill="#79CD24" transform="translate(110,154)"/>
<path d="M0 0 C0 2.97 0 5.94 0 9 C-0.99 9 -1.98 9 -3 9 C-7 3.74285714 -7 3.74285714 -7 1 C-2.25 0 -2.25 0 0 0 Z " fill="#8CD74C" transform="translate(428,136)"/>
<path d="M0 0 C1.65 0 3.3 0 5 0 C2.69 4.62 0.38 9.24 -2 14 C-3 11 -3 11 -3 7 C-2 6 -1 5 0 4 C0 2.68 0 1.36 0 0 Z " fill="#9EDC5A" transform="translate(457,395)"/>
<path d="M0 0 C0.33 1.32 0.66 2.64 1 4 C1.66 4 2.32 4 3 4 C3.99 7.63 4.98 11.26 6 15 C3.63701838 12.63701838 2.05769089 10.76714952 0.3125 8 C-0.12449219 7.319375 -0.56148437 6.63875 -1.01171875 5.9375 C-2 4 -2 4 -2 1 C-1.34 0.67 -0.68 0.34 0 0 Z " fill="#99D85B" transform="translate(219,348)"/>
<path d="M0 0 C2.0625 0.4375 2.0625 0.4375 4 1 C3.34 2.32 2.68 3.64 2 5 C1.34 5 0.68 5 0 5 C-0.103125 5.556875 -0.20625 6.11375 -0.3125 6.6875 C-1.13589682 9.45710747 -2.40168278 11.60252417 -4 14 C-4.33 14 -4.66 14 -5 14 C-5 12.35 -5 10.7 -5 9 C-4.34 9 -3.68 9 -3 9 C-3 8.34 -3 7.68 -3 7 C-2.34 7 -1.68 7 -1 7 C-1.020625 6.030625 -1.04125 5.06125 -1.0625 4.0625 C-1 1 -1 1 0 0 Z " fill="#99D656" transform="translate(510,307)"/>
<path d="M0 0 C0.33 0 0.66 0 1 0 C1 2.31 1 4.62 1 7 C1.99 7.33 2.98 7.66 4 8 C4.69937532 9.31647119 5.36729133 10.65022151 6 12 C6.66 12.33 7.32 12.66 8 13 C8 14.98 8 16.96 8 19 C6.64316249 17.3524116 5.31543279 15.68083079 4 14 C3.2575 13.071875 2.515 12.14375 1.75 11.1875 C-0.51436402 7.06312268 -0.3199901 4.6398565 0 0 Z " fill="#AEE179" transform="translate(161,248)"/>
<path d="M0 0 C0.99 0.33 1.98 0.66 3 1 C2.34 1 1.68 1 1 1 C0.773125 1.66 0.54625 2.32 0.3125 3 C-1.39699723 6.90742225 -3.52468936 10.52421538 -6 14 C-6.33 14 -6.66 14 -7 14 C-6.67 11.36 -6.34 8.72 -6 6 C-5.01 6 -4.02 6 -3 6 C-2.814375 4.7934375 -2.814375 4.7934375 -2.625 3.5625 C-2.41875 2.716875 -2.2125 1.87125 -2 1 C-1.34 0.67 -0.68 0.34 0 0 Z " fill="#98D659" transform="translate(234,220)"/>
<path d="M0 0 C0 3.73906778 -1.30938297 5.68378967 -3 9 C-3.309375 10.093125 -3.61875 11.18625 -3.9375 12.3125 C-4.288125 13.199375 -4.63875 14.08625 -5 15 C-6.32 15.33 -7.64 15.66 -9 16 C-7.35 12.37 -5.7 8.74 -4 5 C-3.34 5 -2.68 5 -2 5 C-1.855625 4.360625 -1.71125 3.72125 -1.5625 3.0625 C-1 1 -1 1 0 0 Z " fill="#ABDD76" transform="translate(453,312)"/>
<path d="M0 0 C8 9.71428571 8 9.71428571 8 14 C7.34 14 6.68 14 6 14 C6 13.01 6 12.02 6 11 C5.360625 10.71125 4.72125 10.4225 4.0625 10.125 C2 9 2 9 1 7 C1.33 6.01 1.66 5.02 2 4 C1.34 4 0.68 4 0 4 C0 2.68 0 1.36 0 0 Z " fill="#9AD755" transform="translate(305,118)"/>
<path d="M0 0 C-1.56641751 4.30764815 -3.68336156 8.06171464 -6 12 C-6.33 12 -6.66 12 -7 12 C-7.24012841 7.91781703 -6.54828113 4.78468721 -5 1 C-3 0 -3 0 0 0 Z " fill="#9DD959" transform="translate(528,283)"/>
<path d="M0 0 C0.99 0 1.98 0 3 0 C3 0.99 3 1.98 3 3 C4.32 2.67 5.64 2.34 7 2 C7.33 4.64 7.66 7.28 8 10 C7.01 10 6.02 10 5 10 C3.35 6.7 1.7 3.4 0 0 Z " fill="#92D952" transform="translate(51,344)"/>
<path d="M0 0 C0.33 0 0.66 0 1 0 C1.05447047 1.41623216 1.09300508 2.83308191 1.125 4.25 C1.14820313 5.03890625 1.17140625 5.8278125 1.1953125 6.640625 C0.9828378 9.20731941 0.28654105 10.7916067 -1 13 C-1.66 13 -2.32 13 -3 13 C-3.66 14.32 -4.32 15.64 -5 17 C-5.66 17 -6.32 17 -7 17 C-5.125 12.25 -5.125 12.25 -4 10 C-3.34 10 -2.68 10 -2 10 C-1.34 6.7 -0.68 3.4 0 0 Z " fill="#98D553" transform="translate(326,249)"/>
<path d="M0 0 C0 3 0 3 -2 6 C-2.66 6 -3.32 6 -4 6 C-4 6.99 -4 7.98 -4 9 C-4.66 9 -5.32 9 -6 9 C-6.33 9.99 -6.66 10.98 -7 12 C-6.98699834 8.89910366 -6.84403097 5.99392117 -6 3 C-2.9375 0.9375 -2.9375 0.9375 0 0 Z " fill="#99D65A" transform="translate(244,207)"/>
<path d="M0 0 C3.22269618 3.79817765 5.74520378 7.57391854 8 12 C7.67 12.66 7.34 13.32 7 14 C6.67 13.01 6.34 12.02 6 11 C5.360625 10.855625 4.72125 10.71125 4.0625 10.5625 C2 10 2 10 0.75 8.3125 C-0.1758912 5.45766881 -0.135557 2.98225393 0 0 Z " fill="#9AD95C" transform="translate(468,118)"/>
<path d="M0 0 C0.99 0 1.98 0 3 0 C1.01780894 5.45102542 -1.5011882 11.17600997 -6 15 C-5.47731534 12.23723823 -4.89130413 9.6739124 -4 7 C-3.34 7 -2.68 7 -2 7 C-1.855625 6.401875 -1.71125 5.80375 -1.5625 5.1875 C-1.1127561 3.43849596 -0.57107659 1.71322977 0 0 Z " fill="#9FD869" transform="translate(183,396)"/>
<path d="M0 0 C1.4535556 2.90711121 0.71133997 4.89597103 0 8 C-0.66 8.66 -1.32 9.32 -2 10 C-5 9 -5 9 -7 7 C-6.01 7 -5.02 7 -4 7 C-3.71125 6.21625 -3.4225 5.4325 -3.125 4.625 C-2 2 -2 2 0 0 Z " fill="#96D757" transform="translate(423,362)"/>
<path d="M0 0 C0.99 0.33 1.98 0.66 3 1 C2.04855402 2.81612488 1.08863067 4.62781081 0.125 6.4375 C-0.40867187 7.44683594 -0.94234375 8.45617187 -1.4921875 9.49609375 C-3 12 -3 12 -5 13 C-5.3636198 8.75776898 -4.5393228 6.41831915 -2 3 C-1.34 3 -0.68 3 0 3 C0 2.01 0 1.02 0 0 Z " fill="#9BD660" transform="translate(353,294)"/>
<path d="M0 0 C0.66 0 1.32 0 2 0 C2 0.66 2 1.32 2 2 C2.99 2 3.98 2 5 2 C5.28875 2.969375 5.5775 3.93875 5.875 4.9375 C6.64214682 8.10664203 6.64214682 8.10664203 9 9 C9.625 11.0625 9.625 11.0625 10 13 C9.01 13.495 9.01 13.495 8 14 C6.66397562 11.85580015 5.33107996 9.70976582 4 7.5625 C3.6184375 6.95083984 3.236875 6.33917969 2.84375 5.70898438 C0 1.11328125 0 1.11328125 0 0 Z " fill="#9DDB69" transform="translate(266,154)"/>
<path d="M0 0 C0.93423645 3.01031744 1.04449911 3.86650268 0 7 C-0.66 7 -1.32 7 -2 7 C-0.60240095 10.54518884 -0.60240095 10.54518884 1 14 C-0.65 14 -2.3 14 -4 14 C-5 12 -5 12 -4.2578125 9.43359375 C-3.88398438 8.44488281 -3.51015625 7.45617187 -3.125 6.4375 C-2.75632812 5.44621094 -2.38765625 4.45492188 -2.0078125 3.43359375 C-1 1 -1 1 0 0 Z " fill="#8ED84B" transform="translate(293,307)"/>
<path d="M0 0 C1.32 0.33 2.64 0.66 4 1 C5.30078125 3.1796875 5.30078125 3.1796875 6.3125 5.875 C6.65925781 6.75929688 7.00601563 7.64359375 7.36328125 8.5546875 C8 11 8 11 7 14 C4.69 9.38 2.38 4.76 0 0 Z " fill="#A1DD66" transform="translate(28,304)"/>
<path d="M0 0 C1.32 0.33 2.64 0.66 4 1 C4 2.32 4 3.64 4 5 C5.32 4.67 6.64 4.34 8 4 C8 4.99 8 5.98 8 7 C7.34 7.66 6.68 8.32 6 9 C2.07699505 6.64619703 1.16142685 4.35535069 0 0 Z " fill="#8FD64D" transform="translate(172,272)"/>
<path d="M0 0 C0.66 0 1.32 0 2 0 C0.87548273 2.9719385 -0.22293791 5.33440687 -2 8 C-2.16699232 11.12521833 -2.16699232 11.12521833 -2 14 C-2.99 13.34 -3.98 12.68 -5 12 C-5.1875 9.375 -5.1875 9.375 -5 7 C-4.34 7 -3.68 7 -3 7 C-3 5.68 -3 4.36 -3 3 C-2.34 3 -1.68 3 -1 3 C-0.67 2.01 -0.34 1.02 0 0 Z " fill="#9AD758" transform="translate(220,241)"/>
<path d="M0 0 C3.09592835 3.5087188 4.74194623 6.49197399 6 11 C4.68 11 3.36 11 2 11 C1.87625 10.195625 1.7525 9.39125 1.625 8.5625 C1.315625 7.2940625 1.315625 7.2940625 1 6 C0.34 5.67 -0.32 5.34 -1 5 C-0.67 3.35 -0.34 1.7 0 0 Z " fill="#A1DA5C" transform="translate(362,216)"/>
<path d="M0 0 C7 8.44827586 7 8.44827586 7 12 C6.01 12 5.02 12 4 12 C-0.57142857 4.71428571 -0.57142857 4.71428571 0 0 Z " fill="#9ED65F" transform="translate(520,207)"/>
<path d="M0 0 C1.33332095 2.6666419 0.67102033 4.16680303 0 7 C-0.66 7 -1.32 7 -2 7 C-2 7.66 -2 8.32 -2 9 C-3.32 9.33 -4.64 9.66 -6 10 C-2.62068966 1.31034483 -2.62068966 1.31034483 0 0 Z " fill="#97D858" transform="translate(27,205)"/>
<path d="M0 0 C0.33 0 0.66 0 1 0 C0.88590407 1.45922693 0.75834456 2.91740598 0.625 4.375 C0.55539063 5.18710938 0.48578125 5.99921875 0.4140625 6.8359375 C0 9 0 9 -2 11 C-2.99 11 -3.98 11 -5 11 C-3.77782954 6.95743617 -2.37245704 3.50711041 0 0 Z " fill="#A2DB67" transform="translate(73,122)"/>
<path d="M0 0 C0 3 0 3 -1 6 C-1.66 6 -2.32 6 -3 6 C-3.33 8.31 -3.66 10.62 -4 13 C-5.32 12.67 -6.64 12.34 -8 12 C-6.85573734 10.186508 -5.70954608 8.37423275 -4.5625 6.5625 C-3.60537109 5.04849609 -3.60537109 5.04849609 -2.62890625 3.50390625 C-1 1 -1 1 0 0 Z " fill="#A9DA73" transform="translate(193,200)"/>
<path d="M0 0 C0.66 0 1.32 0 2 0 C2.80967438 2.91482778 3.21845993 4.46113217 2.0625 7.3125 C1.5365625 8.1478125 1.5365625 8.1478125 1 9 C0.34 9 -0.32 9 -1 9 C-1.33 10.32 -1.66 11.64 -2 13 C-3.33332095 10.3333581 -2.67102033 8.83319697 -2 6 C-1.34 6 -0.68 6 0 6 C0 4.02 0 2.04 0 0 Z " fill="#8CD548" transform="translate(531,270)"/>
<path d="M0 0 C2.375 0.1875 2.375 0.1875 5 1 C6.59642719 3.68490027 7.12740282 5.21434929 6.625 8.3125 C6.41875 8.869375 6.2125 9.42625 6 10 C3.25722422 6.80009492 1.3697164 3.99500618 0 0 Z " fill="#98DB5F" transform="translate(58,356)"/>
<path d="M0 0 C0.33 0.99 0.66 1.98 1 3 C1.66 3 2.32 3 3 3 C7 9.75 7 9.75 7 12 C6.01 12 5.02 12 4 12 C3.32332002 10.75539217 2.65905281 9.50403104 2 8.25 C1.62875 7.55390625 1.2575 6.8578125 0.875 6.140625 C0 4 0 4 0 0 Z " fill="#A7DC71" transform="translate(93,319)"/>
<path d="M0 0 C1.20907496 3.54141957 1.03433482 3.92624372 -0.6875 7.625 C-2.40059709 10.41251338 -3.78920572 11.96795898 -7 13 C-5.58832253 7.73829306 -3.25149768 4.27828642 0 0 Z " fill="#A7DB70" transform="translate(302,292)"/>
<path d="M0 0 C2.06585532 2.06585532 3.21182288 3.95462834 4.625 6.5 C5.07101563 7.2940625 5.51703125 8.088125 5.9765625 8.90625 C7 11 7 11 7 13 C6.34 13 5.68 13 5 13 C5 12.01 5 11.02 5 10 C3.68 9.67 2.36 9.34 1 9 C0.67 6.03 0.34 3.06 0 0 Z " fill="#A9DD68" transform="translate(72,282)"/>
<path d="M0 0 C0.33 0.66 0.66 1.32 1 2 C1.66 2 2.32 2 3 2 C4.79477439 5.81389558 5.37453719 8.78645663 5 13 C4.34 13.66 3.68 14.32 3 15 C2.92652344 14.06027344 2.92652344 14.06027344 2.8515625 13.1015625 C2.77679688 12.28429687 2.70203125 11.46703125 2.625 10.625 C2.55539062 9.81289062 2.48578125 9.00078125 2.4140625 8.1640625 C2.17107412 5.79665809 2.17107412 5.79665809 0 4 C0 2.68 0 1.36 0 0 Z " fill="#A6DA71" transform="translate(378,241)"/>
<path d="M0 0 C0.33 0.66 0.66 1.32 1 2 C-0.25 5.5625 -0.25 5.5625 -2 9 C-2.99 9.33 -3.98 9.66 -5 10 C-4.47731534 7.23723823 -3.89130413 4.6739124 -3 2 C-2.01 1.34 -1.02 0.68 0 0 Z " fill="#90D24B" transform="translate(93,90)"/>
<path d="M0 0 C0 1.65 0 3.3 0 5 C-4.62 5 -9.24 5 -14 5 C-14 4.67 -14 4.34 -14 4 C-10.7 4 -7.4 4 -4 4 C-3.67 3.01 -3.34 2.02 -3 1 C-1 0 -1 0 0 0 Z " fill="#70D01A" transform="translate(173,411)"/>
<path d="M0 0 C0.99 0.33 1.98 0.66 3 1 C0.525 5.455 0.525 5.455 -2 10 C-2.33 10 -2.66 10 -3 10 C-3.33 7.69 -3.66 5.38 -4 3 C-2.68 2.67 -1.36 2.34 0 2 C0 1.34 0 0.68 0 0 Z " fill="#97D451" transform="translate(517,297)"/>
<path d="M0 0 C2.9555377 2.75170751 5.11563315 5.41970299 7 9 C7 9.66 7 10.32 7 11 C5.68 10.34 4.36 9.68 3 9 C3 7.68 3 6.36 3 5 C2.01 5 1.02 5 0 5 C0 3.35 0 1.7 0 0 Z " fill="#A1DB68" transform="translate(218,255)"/>
<path d="M0 0 C1.921875 0.6796875 1.921875 0.6796875 4 2 C4.828125 4.3828125 4.828125 4.3828125 5.25 7.125 C5.39953125 8.03507813 5.5490625 8.94515625 5.703125 9.8828125 C5.80109375 10.58148438 5.8990625 11.28015625 6 12 C2.57563792 9.0163065 2.42218506 6.4751616 2 2 C1.34 2 0.68 2 0 2 C0 1.34 0 0.68 0 0 Z " fill="#8DD74D" transform="translate(306,217)"/>
<path d="M0 0 C2.61724095 2.36797991 4.32861729 4.89600354 6 8 C6 8.66 6 9.32 6 10 C4.125 9.8125 4.125 9.8125 2 9 C0.21715186 5.70173093 0 3.8225249 0 0 Z " fill="#A0DA65" transform="translate(323,149)"/>
<path d="M0 0 C0.66 0 1.32 0 2 0 C1.46939601 4.51013391 -0.30886117 7.38378219 -3 11 C-3.33 11 -3.66 11 -4 11 C-4.33 9.02 -4.66 7.04 -5 5 C-3.35 4.67 -1.7 4.34 0 4 C0 2.68 0 1.36 0 0 Z " fill="#9AD251" transform="translate(119,140)"/>
<path d="M0 0 C0.99 0.33 1.98 0.66 3 1 C3 1.99 3 2.98 3 4 C3.99 4.33 4.98 4.66 6 5 C6.33 5.99 6.66 6.98 7 8 C7.66 8.66 8.32 9.32 9 10 C6.75 10.0625 6.75 10.0625 4 9 C2.30699573 6.13325156 1.13036377 3.12586629 0 0 Z " fill="#9DD766" transform="translate(88,407)"/>
<path d="M0 0 C0.99 0.33 1.98 0.66 3 1 C3 1.99 3 2.98 3 4 C3.66 4.33 4.32 4.66 5 5 C7 7 7 7 7.125 9.625 C7.08375 10.40875 7.0425 11.1925 7 12 C0 3.55172414 0 3.55172414 0 0 Z " fill="#A0DC64" transform="translate(75,384)"/>
<path d="M0 0 C0.66 0 1.32 0 2 0 C0.68139111 4.61513112 -1.21355437 8.09897612 -4 12 C-4.6875 10.3125 -4.6875 10.3125 -5 8 C-3.6875 5.25 -3.6875 5.25 -2 3 C-1.34 3 -0.68 3 0 3 C0 2.01 0 1.02 0 0 Z " fill="#9EDB64" transform="translate(475,369)"/>
<path d="M0 0 C0.99 0 1.98 0 3 0 C2.35550393 3.01217112 1.34977818 5.51655836 -0.0625 8.25 C-0.42472656 8.95640625 -0.78695313 9.6628125 -1.16015625 10.390625 C-1.43730469 10.92171875 -1.71445312 11.4528125 -2 12 C-2.66 10.68 -3.32 9.36 -4 8 C-3.01 8 -2.02 8 -1 8 C-0.67 5.36 -0.34 2.72 0 0 Z " fill="#A1D865" transform="translate(487,346)"/>
<path d="M0 0 C0.99 0 1.98 0 3 0 C3 1.65 3 3.3 3 5 C1.02 5.33 -0.96 5.66 -3 6 C-1.125 1.125 -1.125 1.125 0 0 Z " fill="#8DD74C" transform="translate(444,328)"/>
<path d="M0 0 C0.33 0.99 0.66 1.98 1 3 C-0.8125 5.6875 -0.8125 5.6875 -3 8 C-3.66 8 -4.32 8 -5 8 C-4.67 6.02 -4.34 4.04 -4 2 C-2.68 2 -1.36 2 0 2 C0 1.34 0 0.68 0 0 Z " fill="#90D64C" transform="translate(476,277)"/>
<path d="M0 0 C3.19376532 1.59688266 4.57591496 4.83383035 6 8 C6 8.99 6 9.98 6 11 C5.34 10.67 4.68 10.34 4 10 C4 9.34 4 8.68 4 8 C3.01 7.67 2.02 7.34 1 7 C0.67 4.69 0.34 2.38 0 0 Z " fill="#A6D765" transform="translate(490,156)"/>
<path d="M0 0 C1.85776765 3.13498292 2.20140476 5.37471432 2 9 C0.68 8.67 -0.64 8.34 -2 8 C-2.20086443 4.28400809 -2.1519437 3.22791555 0 0 Z " fill="#8CD747" transform="translate(62,142)"/>
<path d="M0 0 C3.3 0 6.6 0 10 0 C9.67 1.65 9.34 3.3 9 5 C8.67 4.01 8.34 3.02 8 2 C7.13375 2.2784375 7.13375 2.2784375 6.25 2.5625 C3.79307475 3.04023546 2.35602466 2.75729364 0 2 C0 1.34 0 0.68 0 0 Z " fill="#81D039" transform="translate(192,366)"/>
<path d="M0 0 C0.99 0.33 1.98 0.66 3 1 C3.33 1.99 3.66 2.98 4 4 C4.680625 4.680625 5.36125 5.36125 6.0625 6.0625 C6.701875 6.701875 7.34125 7.34125 8 8 C8 8.66 8 9.32 8 10 C7.01 9.67 6.02 9.34 5 9 C4.67 8.34 4.34 7.68 4 7 C3.01 7.495 3.01 7.495 2 8 C2 6.02 2 4.04 2 2 C1.34 2 0.68 2 0 2 C0 1.34 0 0.68 0 0 Z " fill="#91D641" transform="translate(106,346)"/>
<path d="M0 0 C3.29078593 2.79716804 5.06305458 6.19528578 7 10 C6.67 10.66 6.34 11.32 6 12 C4.5 10.6875 4.5 10.6875 3 9 C3 8.01 3 7.02 3 6 C2.34 6 1.68 6 1 6 C0.67 4.02 0.34 2.04 0 0 Z " fill="#A2DB66" transform="translate(270,340)"/>
<path d="M0 0 C1.07349791 4.29399165 0.79682816 5.19495213 -1 9 C-1.66 9 -2.32 9 -3 9 C-3.33 9.99 -3.66 10.98 -4 12 C-4.66 11.67 -5.32 11.34 -6 11 C-4.02 7.37 -2.04 3.74 0 0 Z " fill="#9FDA62" transform="translate(312,275)"/>
<path d="M0 0 C0.33 0 0.66 0 1 0 C0.50769231 6.4 0.50769231 6.4 -2.0625 9.4375 C-2.701875 9.953125 -3.34125 10.46875 -4 11 C-4 9.02 -4 7.04 -4 5 C-3.34 5 -2.68 5 -2 5 C-1.34 3.35 -0.68 1.7 0 0 Z " fill="#8FD149" transform="translate(256,185)"/>
<path d="M0 0 C0.99 0 1.98 0 3 0 C3 1.32 3 2.64 3 4 C3.66 4 4.32 4 5 4 C5.33 5.98 5.66 7.96 6 10 C3.38275905 7.63202009 1.67138271 5.10399646 0 2 C0 1.34 0 0.68 0 0 Z " fill="#9BDA62" transform="translate(82,396)"/>
<path d="M0 0 C1.32 0 2.64 0 4 0 C4.144375 0.763125 4.28875 1.52625 4.4375 2.3125 C4.9632594 5.08172908 4.9632594 5.08172908 6 8 C5.01 8 4.02 8 3 8 C0 2.25 0 2.25 0 0 Z " fill="#99DA5E" transform="translate(201,322)"/>
<path d="M0 0 C2.125 0.375 2.125 0.375 4 1 C3.19185349 2.33597652 2.37836819 3.668725 1.5625 5 C1.11003906 5.7425 0.65757812 6.485 0.19140625 7.25 C-0.20175781 7.8275 -0.59492187 8.405 -1 9 C-1.33 9 -1.66 9 -2 9 C-2.125 5.625 -2.125 5.625 -2 2 C-1.34 1.34 -0.68 0.68 0 0 Z " fill="#97D857" transform="translate(541,257)"/>
<path d="M0 0 C0 1.98 0 3.96 0 6 C-1.65 6.33 -3.3 6.66 -5 7 C-4.39816251 4.97954558 -3.72693904 2.97888961 -3 1 C-1 0 -1 0 0 0 Z " fill="#95D556" transform="translate(367,94)"/>
<path d="M0 0 C1.32 0 2.64 0 4 0 C3.50168276 3.68754757 2.89932357 5.60490662 0 8 C0 5.36 0 2.72 0 0 Z " fill="#8DD243" transform="translate(466,380)"/>
<path d="M0 0 C0.99 0 1.98 0 3 0 C3 1.32 3 2.64 3 4 C3.66 4 4.32 4 5 4 C5.33 5.98 5.66 7.96 6 10 C3.38275905 7.63202009 1.67138271 5.10399646 0 2 C0 1.34 0 0.68 0 0 Z " fill="#9FDC68" transform="translate(188,300)"/>
<path d="M0 0 C2.91843445 2.626591 4.94517315 5.66976339 7 9 C7 9.66 7 10.32 7 11 C6.01 10.67 5.02 10.34 4 10 C3.67 9.01 3.34 8.02 3 7 C2.34 6.67 1.68 6.34 1 6 C0.375 2.9375 0.375 2.9375 0 0 Z " fill="#9FDA65" transform="translate(537,235)"/>
<path d="M0 0 C0.33 0 0.66 0 1 0 C1 1.98 1 3.96 1 6 C-0.98 6.99 -0.98 6.99 -3 8 C-3 8.66 -3 9.32 -3 10 C-3.66 9.67 -4.32 9.34 -5 9 C-3.35 6.03 -1.7 3.06 0 0 Z " fill="#A2DA69" transform="translate(16,222)"/>
<path d="M0 0 C-1.3697164 3.99500618 -3.25722422 6.80009492 -6 10 C-5.67558396 8.33157466 -5.34060811 6.66519519 -5 5 C-4.855625 4.2575 -4.71125 3.515 -4.5625 2.75 C-4.376875 2.1725 -4.19125 1.595 -4 1 C-2 0 -2 0 0 0 Z " fill="#9DD85E" transform="translate(99,178)"/>
<path d="M0 0 C0.65234375 1.765625 0.65234375 1.765625 1 4 C0.00390625 5.921875 0.00390625 5.921875 -1.4375 7.75 C-2.14712891 8.67039062 -2.14712891 8.67039062 -2.87109375 9.609375 C-3.24363281 10.06828125 -3.61617188 10.5271875 -4 11 C-4.33 10.34 -4.66 9.68 -5 9 C-4.00390625 6.8359375 -4.00390625 6.8359375 -2.5625 4.375 C-2.08941406 3.55773437 -1.61632812 2.74046875 -1.12890625 1.8984375 C-0.75636719 1.27195312 -0.38382812 0.64546875 0 0 Z " fill="#AFDC78" transform="translate(87,98)"/>
<path d="M0 0 C0.99 1.32 1.98 2.64 3 4 C2.01 4.495 2.01 4.495 1 5 C1 5.99 1 6.98 1 8 C0.01 8 -0.98 8 -2 8 C-1.125 1.125 -1.125 1.125 0 0 Z " fill="#89D242" transform="translate(451,406)"/>
<path d="M0 0 C0.625 1.8125 0.625 1.8125 1 4 C0.01 5.485 0.01 5.485 -1 7 C-2.32 6.67 -3.64 6.34 -5 6 C-3.35 4.02 -1.7 2.04 0 0 Z " fill="#74D215" transform="translate(481,355)"/>
<path d="M0 0 C2.38672669 2.96283313 4.7353371 5.94270509 7 9 C5.35 8.67 3.7 8.34 2 8 C2 6.68 2 5.36 2 4 C1.34 4 0.68 4 0 4 C0 2.68 0 1.36 0 0 Z " fill="#A4DA67" transform="translate(371,232)"/>
<path d="M0 0 C2.72426311 2.35277269 3.8141763 4.62496331 5 8 C3.02 7.01 1.04 6.02 -1 5 C-0.67 3.35 -0.34 1.7 0 0 Z " fill="#A4D961" transform="translate(515,199)"/>
<path d="M0 0 C3.36720387 1.39332574 4.9859524 2.9789286 7 6 C6.67 6.66 6.34 7.32 6 8 C1.3125 4.38671875 1.3125 4.38671875 0 3 C0 2.01 0 1.02 0 0 Z " fill="#93D54A" transform="translate(483,148)"/>
<path d="M0 0 C2.5 2.25 2.5 2.25 5 5 C5 6.32 5 7.64 5 9 C4.34 9 3.68 9 3 9 C0 2.25 0 2.25 0 0 Z " fill="#9CD75E" transform="translate(230,274)"/>
<path d="M0 0 C0.33 1.32 0.66 2.64 1 4 C0.34 4 -0.32 4 -1 4 C-1.33 5.65 -1.66 7.3 -2 9 C-2.99 9 -3.98 9 -5 9 C-3.7508258 5.54074837 -2.32472205 2.85306797 0 0 Z " fill="#AEDE7A" transform="translate(184,213)"/>
<path d="M0 0 C0.99 0 1.98 0 3 0 C3 0.66 3 1.32 3 2 C3.99 2 4.98 2 6 2 C6.33 2.99 6.66 3.98 7 5 C4.03 4.505 4.03 4.505 1 4 C0.67 2.68 0.34 1.36 0 0 Z " fill="#8BD849" transform="translate(297,204)"/>
<path d="M0 0 C0.75 1.6875 0.75 1.6875 1 4 C-0.9375 6.75 -0.9375 6.75 -3 9 C-3.36923077 3.46153846 -3.36923077 3.46153846 -1.5 1.125 C-1.005 0.75375 -0.51 0.3825 0 0 Z " fill="#A3D873" transform="translate(260,180)"/>
<path d="M0 0 C0.66 0.33 1.32 0.66 2 1 C0.125 6.75 0.125 6.75 -1 9 C-1.66 9 -2.32 9 -3 9 C-2.30058404 5.85262818 -1.23921302 2.97411124 0 0 Z " fill="#83D033" transform="translate(44,175)"/>
<path d="M0 0 C2.72426311 2.35277269 3.8141763 4.62496331 5 8 C4.01 8.33 3.02 8.66 2 9 C0.50178941 5.62902617 0 3.79557881 0 0 Z " fill="#9DD659" transform="translate(313,132)"/>
<path d="M0 0 C5.57142857 5.14285714 5.57142857 5.14285714 6 9 C3 8 3 8 1.3125 5.625 C0 3 0 3 0 0 Z " fill="#A6DA6A" transform="translate(462,109)"/>
<path d="M0 0 C1.485 0.99 1.485 0.99 3 2 C3 2.99 3 3.98 3 5 C3.99 5 4.98 5 6 5 C6 6.65 6 8.3 6 10 C2.51668565 6.98112756 1.20842856 4.43090471 0 0 Z " fill="#AAE37F" transform="translate(227,367)"/>
<path d="M0 0 C2.83252154 2.83252154 3.85737708 4.2864755 5 8 C4.67 8.66 4.34 9.32 4 10 C3.34 10 2.68 10 2 10 C1.34 6.7 0.68 3.4 0 0 Z " fill="#9FDA65" transform="translate(250,306)"/>
<path d="M0 0 C1.32 0 2.64 0 4 0 C2.8141763 3.37503669 1.72426311 5.64722731 -1 8 C-1 6.35 -1 4.7 -1 3 C-0.01 3 0.98 3 2 3 C2 2.34 2 1.68 2 1 C1.34 0.67 0.68 0.34 0 0 Z " fill="#91D453" transform="translate(370,265)"/>
<path d="M0 0 C0.99 0 1.98 0 3 0 C1.8141763 3.37503669 0.72426311 5.64722731 -2 8 C-2 6.35 -2 4.7 -2 3 C-1.34 3 -0.68 3 0 3 C0 2.01 0 1.02 0 0 Z " fill="#A7DD61" transform="translate(101,170)"/>
<path d="M0 0 C3.03869411 1.51934706 3.64410306 3.98004772 5 7 C5 7.66 5 8.32 5 9 C2 8 2 8 0.8125 6.1875 C0 4 0 4 0 0 Z " fill="#9ED665" transform="translate(79,295)"/>
<path d="M0 0 C2.25245881 2.68841859 3.88213958 4.64641875 5 8 C4.01 8 3.02 8 2 8 C0.23537317 4.91190305 0 3.76687864 0 0 Z " fill="#A3DB6F" transform="translate(527,219)"/>
<path d="M0 0 C0.99 0.33 1.98 0.66 3 1 C3 2.32 3 3.64 3 5 C3.66 5 4.32 5 5 5 C4.67 6.32 4.34 7.64 4 9 C2 6 2 6 2 3 C1.34 3 0.68 3 0 3 C0 2.01 0 1.02 0 0 Z " fill="#ABDB75" transform="translate(464,210)"/>
<path d="M0 0 C0.99 0 1.98 0 3 0 C3.66 2.97 4.32 5.94 5 9 C1.89448334 5.89448334 1.18676066 4.10801767 0 0 Z " fill="#ACE17D" transform="translate(454,193)"/>
<path d="M0 0 C1.32 0.33 2.64 0.66 4 1 C4.33 3.64 4.66 6.28 5 9 C2.67527795 6.14693203 1.2491742 3.45925163 0 0 Z " fill="#A9E275" transform="translate(280,176)"/>
<path d="M0 0 C0.66 0 1.32 0 2 0 C0.375 5.75 0.375 5.75 -3 8 C-3 6.68 -3 5.36 -3 4 C-2.34 4 -1.68 4 -1 4 C-0.67 2.68 -0.34 1.36 0 0 Z " fill="#98D459" transform="translate(109,158)"/>
<path d="M0 0 C2.64 0 5.28 0 8 0 C8.66 1.65 9.32 3.3 10 5 C9.01 5 8.02 5 7 5 C6.67 4.01 6.34 3.02 6 2 C3.03 1.505 3.03 1.505 0 1 C0 0.67 0 0.34 0 0 Z " fill="#93CF5B" transform="translate(279,85)"/>
<path d="M0 0 C1.65 0 3.3 0 5 0 C4.1875 2.4375 4.1875 2.4375 3 5 C2.01 5.33 1.02 5.66 0 6 C0 4.02 0 2.04 0 0 Z " fill="#8DD54D" transform="translate(457,395)"/>
<path d="M0 0 C0.99 0 1.98 0 3 0 C2.43628586 3.26954202 1.50037734 4.82575883 -1 7 C-0.67 4.69 -0.34 2.38 0 0 Z " fill="#B7E190" transform="translate(202,366)"/>
<path d="M0 0 C0.66 0.33 1.32 0.66 2 1 C1.50168276 4.68754757 0.89932357 6.60490662 -2 9 C-1.41196203 5.97580475 -0.77321882 2.98241547 0 0 Z " fill="#94D253" transform="translate(482,355)"/>
<path d="M0 0 C2.62386487 3.06117568 3 3.73173127 3 8 C2.01 7.67 1.02 7.34 0 7 C0 4.69 0 2.38 0 0 Z " fill="#95D44D" transform="translate(103,336)"/>
<path d="M0 0 C2.79872437 2.52788007 4.45773019 4.20411134 5 8 C2 7 2 7 0 4 C0 2.68 0 1.36 0 0 Z " fill="#AADC71" transform="translate(241,291)"/>
<path d="M0 0 C-0.33 1.32 -0.66 2.64 -1 4 C-2.32 4.33 -3.64 4.66 -5 5 C-5 3.68 -5 2.36 -5 1 C-3 0 -3 0 0 0 Z " fill="#92D642" transform="translate(528,283)"/>
<path d="M0 0 C0.99 0.33 1.98 0.66 3 1 C1.68 3.31 0.36 5.62 -1 8 C-1.33 8 -1.66 8 -2 8 C-2.20086443 4.28400809 -2.1519437 3.22791555 0 0 Z " fill="#9DD75B" transform="translate(536,266)"/>
<path d="M0 0 C1.2077558 3.62326739 0.54311128 4.64146369 -1 8 C-1.99 8 -2.98 8 -4 8 C-2.87548273 5.0280615 -1.77706209 2.66559313 0 0 Z " fill="#A3D966" transform="translate(484,261)"/>
<path d="M0 0 C1.32 0 2.64 0 4 0 C4.33 1.65 4.66 3.3 5 5 C4.01 5.495 4.01 5.495 3 6 C0 2.25 0 2.25 0 0 Z " fill="#9FDC60" transform="translate(469,220)"/>
<path d="M0 0 C0.66 0 1.32 0 2 0 C1.67 2.31 1.34 4.62 1 7 C0.67 6.34 0.34 5.68 0 5 C-0.66 5 -1.32 5 -2 5 C-1.34 3.35 -0.68 1.7 0 0 Z " fill="#80D22C" transform="translate(194,200)"/>
<path d="M0 0 C0.99 0.33 1.98 0.66 3 1 C1.69593116 3.01920337 0.36176581 5.01924973 -1 7 C-1.33 7 -1.66 7 -2 7 C-2 5.02 -2 3.04 -2 1 C-1.34 0.67 -0.68 0.34 0 0 Z " fill="#A0DA6A" transform="translate(247,200)"/>
<path d="M0 0 C0.99 0.33 1.98 0.66 3 1 C3.33 3.31 3.66 5.62 4 8 C0 3.375 0 3.375 0 0 Z " fill="#ADE37D" transform="translate(444,175)"/>
<path d="M0 0 C3 3.75 3 3.75 3 6 C2.34 6 1.68 6 1 6 C0.67 6.99 0.34 7.98 0 9 C-0.66 9 -1.32 9 -2 9 C-2 8.34 -2 7.68 -2 7 C-1.34 7 -0.68 7 0 7 C0 4.69 0 2.38 0 0 Z " fill="#8DD543" transform="translate(332,164)"/>
<path d="M0 0 C0.33 0.99 0.66 1.98 1 3 C1.66 3 2.32 3 3 3 C5.125 7.625 5.125 7.625 4 11 C2 9 2 9 1.875 6.375 C1.91625 5.59125 1.9575 4.8075 2 4 C1.34 4 0.68 4 0 4 C0 2.68 0 1.36 0 0 Z " fill="#7DCC24" transform="translate(310,129)"/>
<path d="M0 0 C0.99 0.33 1.98 0.66 3 1 C3.125 3.875 3.125 3.875 3 7 C2.34 7.66 1.68 8.32 1 9 C0.67 6.03 0.34 3.06 0 0 Z " fill="#84CC2E" transform="translate(474,131)"/>
<path d="M0 0 C4 6 4 6 4 9 C3.01 9 2.02 9 1 9 C0.67 6.03 0.34 3.06 0 0 Z " fill="#ADDF76" transform="translate(458,100)"/>
</svg>
