<?xml version="1.0" encoding="UTF-8"?>
<svg version="1.1" xmlns="http://www.w3.org/2000/svg" width="500" height="500">
<path d="M0 0 C8.92729029 -0.1158549 17.85432181 -0.20469479 26.78219986 -0.25906086 C30.92782393 -0.28515421 35.07293368 -0.32054618 39.21826172 -0.37719727 C43.21887006 -0.43152836 47.21898376 -0.46142251 51.21993256 -0.47438622 C52.74622129 -0.48362431 54.27248297 -0.50166473 55.7985611 -0.52865028 C57.93694011 -0.56495893 60.07327635 -0.56994515 62.21191406 -0.56762695 C64.03725677 -0.58428154 64.03725677 -0.58428154 65.8994751 -0.60127258 C69 0 69 0 71.34417725 2.39851379 C72.8430464 4.75340801 74.22430899 7.08062679 75.5 9.5625 C83.19480026 23.99513298 92.07941644 37.81951534 100.68408203 51.72070312 C102.60710016 54.83145307 104.52264938 57.94671706 106.4375 61.0625 C107.06575684 62.07546143 107.69401367 63.08842285 108.34130859 64.13208008 C108.9286377 65.09009521 109.5159668 66.04811035 110.12109375 67.03515625 C110.6514624 67.8950415 111.18183105 68.75492676 111.72827148 69.64086914 C112.89244836 71.80048541 113.54597245 73.60310857 114 76 C114.66 76 115.32 76 116 76 C116.4021875 76.74830078 116.4021875 76.74830078 116.8125 77.51171875 C119.21721133 81.91771945 121.73073427 86.23337909 124.375 90.5 C125.04144531 91.58410156 125.70789063 92.66820312 126.39453125 93.78515625 C127.86630203 96.17549619 129.35043387 98.55704056 130.84521484 100.93310547 C132.93359382 104.25822837 134.99874381 107.59704993 137.0625 110.9375 C138.10059814 112.57332031 138.10059814 112.57332031 139.15966797 114.2421875 C140.11897217 115.80646484 140.11897217 115.80646484 141.09765625 117.40234375 C141.68039307 118.33554443 142.26312988 119.26874512 142.86352539 120.23022461 C144.26921413 123.65611908 143.97722118 125.46703922 143 129 C141.73621358 131.41191381 140.45489351 133.64989337 139 135.9375 C138.1806394 137.2615021 137.3616395 138.58572748 136.54296875 139.91015625 C136.12192871 140.58449707 135.70088867 141.25883789 135.26708984 141.95361328 C133.62885963 144.59940242 132.04157253 147.27385408 130.4543457 149.95043945 C127.68096589 154.62492162 124.88017206 159.26033413 121.8125 163.75 C119.72842806 166.80777769 117.92354107 169.91937897 116.1875 173.1875 C113.8292714 177.61304711 111.24362264 181.80916052 108.5 186 C105.27417376 190.93494822 102.33557817 195.92966164 99.5625 201.13671875 C96.24847509 207.2096694 92.59250126 213.08908223 89 219 C88.44119141 219.92087402 87.88238281 220.84174805 87.30664062 221.79052734 C79.85005513 234.07631089 79.85005513 234.07631089 76.57226562 239.42919922 C75.55429054 241.09368332 74.54217371 242.76177037 73.53710938 244.43408203 C73.09689453 245.15837402 72.65667969 245.88266602 72.203125 246.62890625 C71.63319824 247.57552124 71.63319824 247.57552124 71.05175781 248.54125977 C70 250 70 250 68 251 C65.95661749 251.10053682 63.90989155 251.13511924 61.86404419 251.14044189 C60.55446747 251.14615204 59.24489075 251.15186218 57.89562988 251.15774536 C56.43579111 251.15899078 54.97595223 251.16011586 53.51611328 251.16113281 C51.98538086 251.16575989 50.45464959 251.1707844 48.92391968 251.17617798 C44.75861356 251.18931421 40.59332357 251.19574925 36.42799997 251.20018864 C33.82719994 251.20311724 31.22640434 251.20722163 28.62560654 251.21169281 C20.49269255 251.22537064 12.35978867 251.23503603 4.22686398 251.2388947 C-5.16964353 251.24337705 -14.56600568 251.2609319 -23.96246898 251.2898953 C-31.22026427 251.31149201 -38.4780186 251.3215979 -45.73584569 251.32293582 C-50.07316934 251.32398525 -54.41035643 251.32992222 -58.74764633 251.34775543 C-62.827014 251.36420157 -66.90614191 251.36640857 -70.98553085 251.35761642 C-72.4835372 251.3568442 -73.98155625 251.36121312 -75.47953033 251.37107468 C-77.52300696 251.38373943 -79.56657935 251.37614566 -81.6100769 251.36749268 C-82.75418974 251.36895924 -83.89830257 251.3704258 -85.07708549 251.3719368 C-88.32982202 250.95803061 -89.65596644 250.24368382 -92 248 C-93.421875 245.7578125 -93.421875 245.7578125 -94.75 243.125 C-97.56623353 237.7466292 -100.65742165 232.60692596 -103.86328125 227.453125 C-106.11684556 223.82660396 -108.31057977 220.16549199 -110.5 216.5 C-113.41332294 211.63085788 -116.34369861 206.77304772 -119.3125 201.9375 C-119.92738281 200.93589844 -120.54226562 199.93429687 -121.17578125 198.90234375 C-122.47297097 196.83850656 -123.83174783 194.81282928 -125.23046875 192.81640625 C-127 190 -127 190 -127 187 C-127.66 187 -128.32 187 -129 187 C-129.928125 185.2675 -129.928125 185.2675 -130.875 183.5 C-133.33286486 179.06891968 -135.98438425 174.78331867 -138.6875 170.5 C-142.6625113 164.19942134 -146.48495569 157.82613602 -150.22900391 151.38598633 C-153.6321832 145.55782329 -157.19679567 139.8406866 -160.86523438 134.17578125 C-162.7983564 131.14565177 -164.37964266 128.55295567 -165 125 C-163.71538465 120.46923089 -161.01099795 116.70323861 -158.4375 112.8125 C-155.54506253 108.50834802 -155.54506253 108.50834802 -153 104 C-152.34 104 -151.68 104 -151 104 C-150.91081299 103.47148437 -150.82162598 102.94296875 -150.72973633 102.3984375 C-149.73822619 99.13962333 -148.08693426 96.53903401 -146.32421875 93.625 C-145.95778763 93.01865723 -145.59135651 92.41231445 -145.21382141 91.78759766 C-144.438834 90.50852119 -143.66120061 89.23104466 -142.88110352 87.95507812 C-141.69443278 86.01135563 -140.51958558 84.06084073 -139.34570312 82.109375 C-138.58924608 80.86415514 -137.8321067 79.61934948 -137.07421875 78.375 C-136.38932373 77.24835938 -135.70442871 76.12171875 -134.9987793 74.9609375 C-131.46981592 69.73322676 -131.46981592 69.73322676 -129 68 C-125.83424854 67.38839429 -122.70947678 67.37121894 -119.4921875 67.35546875 C-118.57035675 67.33656082 -117.648526 67.31765289 -116.69876099 67.298172 C-114.75391296 67.26171472 -112.8088713 67.23456013 -110.86376953 67.21606445 C-107.87859471 67.18753436 -104.89484471 67.13247052 -101.91015625 67.07226562 C-100.02085888 67.04012777 -98.1315355 67.00947757 -96.2421875 66.98046875 C-95.34635956 66.9659819 -94.45053162 66.95149506 -93.52755737 66.93656921 C-92.69974762 66.9293837 -91.87193787 66.92219818 -91.01904297 66.91479492 C-90.28942352 66.90687424 -89.55980408 66.89895355 -88.80807495 66.89079285 C-87 67 -87 67 -85 68 C-85.62890753 71.45113008 -86.99151626 73.70910123 -89 76.5625 C-90.80027155 79.12875248 -92.00176863 81.00530589 -93 84 C-93.66 84 -94.32 84 -95 84 C-95.22558594 84.82628906 -95.45117188 85.65257812 -95.68359375 86.50390625 C-97.2860057 90.75957004 -99.53375596 94.18148253 -102.0625 97.9375 C-103.0526661 99.43886278 -104.04091108 100.94149413 -105.02734375 102.4453125 C-105.52347168 103.20102539 -106.01959961 103.95673828 -106.53076172 104.73535156 C-108.7931798 108.22258821 -110.97393857 111.75574186 -113.125 115.3125 C-113.50277588 115.92794678 -113.88055176 116.54339355 -114.26977539 117.17749023 C-116.0135714 120.07949424 -117.53019263 122.62955518 -118 126 C-117.37774965 127.91824543 -117.37774965 127.91824543 -116.234375 129.75 C-115.83863281 130.4409375 -115.44289062 131.131875 -115.03515625 131.84375 C-114.61105469 132.5553125 -114.18695313 133.266875 -113.75 134 C-113.34136719 134.7115625 -112.93273437 135.423125 -112.51171875 136.15625 C-110.85929708 139.00415358 -109.22556134 141.70971236 -107.203125 144.3125 C-106 146 -106 146 -106 149 C-105.34 149 -104.68 149 -104 149 C-102.73828125 150.80078125 -102.73828125 150.80078125 -101.3125 153.3125 C-99.10488021 157.12468246 -96.83033026 160.86353968 -94.4375 164.5625 C-92.37297784 167.78549856 -90.3935036 171.01406386 -88.5625 174.375 C-84.34717395 182.09856514 -79.5997536 189.51403385 -74.8515625 196.91796875 C-74.30830322 197.7682666 -73.76504395 198.61856445 -73.20532227 199.49462891 C-72.1247609 201.18363834 -71.03943654 202.86961169 -69.94897461 204.55224609 C-69.20272827 205.71941162 -69.20272827 205.71941162 -68.44140625 206.91015625 C-67.99482666 207.60246338 -67.54824707 208.29477051 -67.08813477 209.00805664 C-65.99076515 211.01690535 -65.51079414 212.78237291 -65 215 C-51.13515428 214.93944458 -37.27049557 214.86173365 -23.40585804 214.76428509 C-16.9680945 214.71953784 -10.53039488 214.68029113 -4.0925293 214.65356445 C2.11915919 214.62757521 8.33060225 214.58720342 14.54213905 214.53681374 C16.91319033 214.52011545 19.28428409 214.50861967 21.65538597 214.50238609 C24.97388884 214.49277747 28.29175958 214.46475591 31.61010742 214.43237305 C32.59266006 214.43380814 33.57521271 214.43524323 34.58753967 214.4367218 C39.51293593 214.36864842 43.04079385 214.27975637 47 211 C48.58026078 208.7925808 48.58026078 208.7925808 49.78515625 206.1875 C52.06528598 201.75695071 54.46820392 197.4429972 57.05859375 193.1875 C57.41442535 192.60145996 57.77025696 192.01541992 58.13687134 191.41162109 C58.86729962 190.21095064 59.59878362 189.01092182 60.33129883 187.81152344 C61.43527032 186.00365134 62.5353173 184.19343815 63.63476562 182.3828125 C67.55901414 175.932534 71.54682179 169.53157849 75.67211914 163.20703125 C77.13596231 160.95564714 77.13596231 160.95564714 78 158 C78.66 158 79.32 158 80 158 C80.0928125 157.47148437 80.185625 156.94296875 80.28125 156.3984375 C81.2471692 153.17520712 82.81907985 150.53992899 84.5 147.625 C84.84659668 147.01720703 85.19319336 146.40941406 85.55029297 145.78320312 C87.45137333 142.49329437 89.44085145 139.30571994 91.6015625 136.1796875 C92.02244141 135.56270996 92.44332031 134.94573242 92.87695312 134.31005859 C93.69349034 133.12582406 94.52763887 131.95349445 95.38085938 130.79541016 C97.33718698 127.94991979 98.07841979 126.49951428 97.53515625 123.0390625 C95.71392157 119.43366663 93.62605679 116.17965022 91.3125 112.875 C87.42902522 107.20488767 83.84541906 101.4797002 80.47265625 95.48828125 C79.06657962 92.98663216 79.06657962 92.98663216 77.30859375 90.85546875 C76 89 76 89 76 86 C75.34 86 74.68 86 74 86 C73.6596875 85.35675781 73.319375 84.71351563 72.96875 84.05078125 C68.38098422 75.49752642 63.30957868 67.27989988 58.15625 59.05859375 C57.33640625 57.73021484 57.33640625 57.73021484 56.5 56.375 C56.0153125 55.59898437 55.530625 54.82296875 55.03125 54.0234375 C54 52 54 52 54 49 C53.34 49 52.68 49 52 49 C51.57847656 48.21753906 51.15695312 47.43507812 50.72265625 46.62890625 C50.17480469 45.61699219 49.62695312 44.60507813 49.0625 43.5625 C48.51722656 42.55316406 47.97195313 41.54382813 47.41015625 40.50390625 C46.22300532 38.13329507 46.22300532 38.13329507 45 37 C42.94443339 36.90586313 40.88559819 36.88257002 38.82788086 36.88647461 C38.18399918 36.88632858 37.54011749 36.88618256 36.87672424 36.8860321 C34.73939697 36.88673115 32.60215587 36.89452309 30.46484375 36.90234375 C28.98653715 36.90420796 27.50822993 36.90563185 26.02992249 36.90663147 C22.13201198 36.91045641 18.23413851 36.92028648 14.33624268 36.93133545 C10.36153667 36.94155008 6.38682471 36.9461292 2.41210938 36.95117188 C-5.391944 36.96190878 -13.19596682 36.97898491 -21 37 C-21 32.74893373 -20.73119524 32.16971655 -18.375 28.9375 C-14.81532829 23.83669983 -11.92496746 18.48137335 -9 13 C-8.04543306 11.26875129 -7.08740364 9.53940456 -6.125 7.8125 C-5.71507812 7.07644531 -5.30515625 6.34039062 -4.8828125 5.58203125 C-4.44582031 4.79892578 -4.44582031 4.79892578 -4 4 C-3.34 4 -2.68 4 -2 4 C-1.34 2.68 -0.68 1.36 0 0 Z " fill="#F7F7F7" transform="translate(317,125)"/>
<path d="M0 0 C1.1874884 -0.00701431 2.37497681 -0.01402863 3.59844971 -0.02125549 C4.89264328 -0.01361176 6.18683685 -0.00596802 7.52024841 0.00190735 C8.90364353 -0.0005219 10.28703689 -0.00424252 11.67042542 -0.00915527 C15.42037237 -0.01854885 19.17005761 -0.00915234 22.9199841 0.00417686 C26.84589753 0.01550444 30.77179832 0.01138289 34.69772339 0.00942993 C41.28916188 0.00854747 47.88049742 0.0196181 54.47190857 0.03804016 C62.09219518 0.05921584 69.7123311 0.06271551 77.33264118 0.0564782 C84.6652008 0.05078376 91.99770736 0.05643058 99.33025932 0.06765175 C102.4501894 0.07229578 105.57008701 0.07317244 108.69001961 0.0710659 C112.36313296 0.06918234 116.03609292 0.07729202 119.7091713 0.0931263 C121.70028975 0.0993926 123.69143147 0.09586184 125.68255615 0.09205627 C126.86722473 0.09914108 128.05189331 0.10622589 129.27246094 0.11352539 C130.81686277 0.1166047 130.81686277 0.1166047 132.39246464 0.11974621 C135.13788472 0.38040702 136.75958043 0.90481143 139.07273865 2.3742218 C140.33372498 4.07905579 140.33372498 4.07905579 141.4047699 6.12031555 C141.80736023 6.86998596 142.20995056 7.61965637 142.6247406 8.39204407 C143.04070496 9.19053772 143.45666931 9.98903137 143.88523865 10.8117218 C144.7679965 12.45638084 145.65341222 14.09961607 146.54148865 15.7414093 C146.97203552 16.53901672 147.4025824 17.33662415 147.84617615 18.15840149 C149.85887824 21.79440552 152.10481747 25.26308071 154.4047699 28.72187805 C155.78902112 30.92306442 157.04778441 33.12852389 158.29148865 35.40937805 C161.5516373 41.33184858 165.16001837 47.0293762 168.76023865 52.7492218 C169.77440857 54.36763977 169.77440857 54.36763977 170.80906677 56.01875305 C174.38853727 61.73026275 174.38853727 61.73026275 178.07273865 67.3742218 C178.07273865 68.3642218 178.07273865 69.3542218 178.07273865 70.3742218 C178.73273865 70.3742218 179.39273865 70.3742218 180.07273865 70.3742218 C180.36406677 70.90789368 180.6553949 71.44156555 180.95555115 71.9914093 C183.65422682 76.89654937 186.44951163 81.72811559 189.34617615 86.51875305 C190.62762777 88.63807688 191.90355527 90.76021489 193.17430115 92.88594055 C195.46637297 96.71984291 197.76708888 100.54847116 200.07273865 104.3742218 C200.44253845 104.98862122 200.81233826 105.60302063 201.19334412 106.23603821 C202.25318151 107.99297526 203.31829054 109.74659591 204.38523865 111.4992218 C205.30756287 113.01902649 205.30756287 113.01902649 206.2485199 114.5695343 C208.02875949 117.42322206 208.02875949 117.42322206 210.2563324 120.0148468 C212.31858041 122.69355175 212.88055301 124.67200519 212.7328949 128.0617218 C211.54537047 132.22157068 208.7951326 135.33474516 206.1157074 138.6632843 C204.02066926 141.44331578 202.5370898 144.22378808 201.07273865 147.3742218 C200.41273865 147.3742218 199.75273865 147.3742218 199.07273865 147.3742218 C198.97001648 147.93198303 198.86729431 148.48974426 198.76145935 149.06440735 C197.92982543 151.8535206 196.6381471 153.88986238 195.0532074 156.33125305 C194.4428363 157.27935852 193.83246521 158.22746399 193.20359802 159.20429993 C192.24163513 160.68059875 192.24163513 160.68059875 191.26023865 162.1867218 C187.38318652 168.17492206 183.52930809 174.13150066 180.07273865 180.3742218 C179.41273865 180.3742218 178.75273865 180.3742218 178.07273865 180.3742218 C178.07273865 181.0342218 178.07273865 181.6942218 178.07273865 182.3742218 C163.55273865 182.3742218 149.03273865 182.3742218 134.07273865 182.3742218 C135.56512351 177.89706721 136.48299833 175.39609467 138.94773865 171.6867218 C139.56391052 170.74570618 140.1800824 169.80469055 140.81492615 168.8351593 C141.16651794 168.2998761 141.51810974 167.7645929 141.88035583 167.21308899 C143.78784199 164.27140477 145.63863061 161.29441487 147.49925232 158.32295227 C151.26258158 152.31680723 155.01646236 146.33325545 159.13523865 140.5617218 C163.62007361 134.68975642 163.62007361 134.68975642 164.9203949 127.6789093 C163.83663599 123.45374785 161.88715824 120.36886077 159.51023865 116.7492218 C159.05842224 116.04410461 158.60660583 115.33898743 158.14109802 114.61250305 C154.86963707 109.5276653 151.50548169 104.50459828 148.1313324 99.48750305 C141.16275972 88.9486939 134.66114936 78.10664093 128.19480896 67.25508118 C126.64980377 64.66528136 125.09787774 62.07966134 123.5453949 59.49433899 C122.78161168 58.22200988 122.01857105 56.94923466 121.2563324 55.67597961 C119.5754339 52.86899876 117.88553807 50.06915419 116.17430115 47.2804718 C115.62516052 46.3832843 115.0760199 45.4860968 114.51023865 44.5617218 C114.03457458 43.79215149 113.55891052 43.02258118 113.0688324 42.22969055 C112.07273865 40.3742218 112.07273865 40.3742218 112.07273865 38.3742218 C103.673998 38.3337084 95.27551467 38.29771441 86.87669373 38.33247375 C85.85036331 38.33668839 84.8240329 38.34090302 83.76660156 38.34524536 C81.61428657 38.35426484 79.46197331 38.36370542 77.30966187 38.37353516 C70.27648049 38.39550994 63.24989823 38.32384697 56.21789551 38.19708252 C51.40609091 38.12168986 46.59488388 38.10020176 41.782547 38.08836365 C39.44276044 38.0706661 37.10303012 38.03003475 34.76405334 37.96598816 C23.04970089 37.07614155 23.04970089 37.07614155 12.31794739 40.63105774 C9.16501156 44.08189535 7.66164995 48.00261228 6.07273865 52.3742218 C5.08990453 54.10469589 4.07602157 55.81856412 3.01023865 57.4992218 C2.53586365 58.29586243 2.06148865 59.09250305 1.57273865 59.9132843 C-0.06533999 62.60075706 -1.77478784 65.23523238 -3.48976135 67.8742218 C-6.69529785 72.86773533 -9.40166046 78.00877474 -11.92726135 83.3742218 C-12.58726135 83.3742218 -13.24726135 83.3742218 -13.92726135 83.3742218 C-14.02265198 83.90789368 -14.1180426 84.44156555 -14.21632385 84.9914093 C-15.15231285 88.1285153 -16.66064487 90.66492068 -18.30226135 93.4992218 C-18.64805237 94.09742737 -18.99384338 94.69563293 -19.35011292 95.31196594 C-22.82828851 101.28770288 -26.43900282 107.18387449 -30.0693512 113.06806946 C-30.9478288 114.49299912 -31.82039453 115.92159465 -32.68629456 117.35420227 C-33.5029291 118.68350273 -34.34748568 119.99611257 -35.22096252 121.28877258 C-36.56771743 123.27799636 -36.56771743 123.27799636 -37.92726135 126.3742218 C-37.44934025 129.03995251 -37.44934025 129.03995251 -35.73976135 131.3742218 C-35.15452698 132.31781555 -34.5692926 133.2614093 -33.96632385 134.2335968 C-33.29343323 135.27000305 -32.6205426 136.3064093 -31.92726135 137.3742218 C-30.85093052 139.15496822 -29.79264659 140.94576663 -28.73390198 142.73701477 C-27.59850771 144.65163033 -26.44867399 146.55684398 -25.29444885 148.4601593 C-23.70463024 151.08355726 -22.12685546 153.71356298 -20.56007385 156.3507843 C-15.81502052 164.34099726 -15.81502052 164.34099726 -10.73976135 172.1242218 C-8.10730662 175.99758845 -5.89854287 180.0211053 -3.6967926 184.15156555 C-1.50939932 188.13522882 0.81056712 192.03209351 3.13523865 195.9367218 C6.3951823 201.41265384 9.47134394 206.88883331 12.13523865 212.6867218 C12.96595547 214.55611518 12.96595547 214.55611518 15.07273865 215.3742218 C16.8810817 215.43137013 18.69170358 215.42159773 20.50047302 215.38008118 C21.63504944 215.3567572 22.76962585 215.33343323 23.93858337 215.30940247 C25.16879211 215.27923035 26.39900085 215.24905823 27.66648865 215.2179718 C28.92408997 215.19198914 30.18169128 215.16600647 31.47740173 215.13923645 C35.50930429 215.05581433 39.54102038 214.96601224 43.57273865 214.8742218 C48.87470935 214.75351144 54.17677215 214.64001822 59.47898865 214.5304718 C60.70919739 214.50029968 61.93940613 214.47012756 63.20689392 214.43904114 C64.34147034 214.41571716 65.47604675 214.39239319 66.64500427 214.36836243 C67.64712952 214.34536072 68.64925476 214.32235901 69.68174744 214.29866028 C72.07273865 214.3742218 72.07273865 214.3742218 74.07273865 215.3742218 C73.84176733 219.06976294 72.61090358 221.1750099 70.38523865 223.9992218 C67.94358692 227.09779412 65.98476499 230.20145845 64.13523865 233.6867218 C55.93909311 249.12998549 55.93909311 249.12998549 51.07273865 252.3742218 C48.5369873 252.63491821 48.5369873 252.63491821 45.47142029 252.64888 C44.32335403 252.65841202 43.17528778 252.66794403 41.99243164 252.67776489 C40.75178452 252.67685349 39.51113739 252.67594208 38.2328949 252.67500305 C36.32243629 252.68143074 36.32243629 252.68143074 34.37338257 252.68798828 C31.67740623 252.6937365 28.98181213 252.69516139 26.28587341 252.68989563 C22.83457723 252.68410231 19.38381794 252.70102911 15.93261051 252.7242403 C12.63687595 252.7425331 9.3411711 252.73879206 6.0453949 252.73750305 C4.806772 252.7467128 3.56814911 252.75592255 2.29199219 252.76541138 C1.14077377 252.75918259 -0.01044464 252.7529538 -1.19654846 252.74653625 C-2.71519753 252.74748039 -2.71519753 252.74748039 -4.26452637 252.7484436 C-7.34341144 252.31573591 -8.67418241 251.47605989 -10.92726135 249.3742218 C-12.3139801 247.2023468 -12.3139801 247.2023468 -13.61476135 244.6242218 C-16.03061879 240.01709669 -18.56075961 235.51865889 -21.23976135 231.0617218 C-21.6156842 230.4345929 -21.99160706 229.80746399 -22.37892151 229.16133118 C-24.36590693 225.87287449 -26.40018373 222.62354299 -28.50538635 219.40937805 C-29.12933289 218.45575378 -29.12933289 218.45575378 -29.7658844 217.48286438 C-30.56540405 216.26867265 -31.37130452 215.05865208 -32.18434143 213.85346985 C-34.92726135 209.70071242 -34.92726135 209.70071242 -34.92726135 206.3742218 C-35.58726135 206.3742218 -36.24726135 206.3742218 -36.92726135 206.3742218 C-37.30237854 205.6729718 -37.67749573 204.9717218 -38.0639801 204.2492218 C-40.87546143 199.03700452 -43.73420352 193.94379192 -47.04444885 189.0304718 C-47.92726135 187.3742218 -47.92726135 187.3742218 -47.92726135 184.3742218 C-48.58726135 184.3742218 -49.24726135 184.3742218 -49.92726135 184.3742218 C-50.26394836 183.74475647 -50.60063538 183.11529114 -50.94752502 182.4667511 C-54.85002319 175.23528693 -58.95567948 168.13602764 -63.1335907 161.06199646 C-65.01451265 157.87329745 -66.88414212 154.67798118 -68.75538635 151.4835968 C-71.17036581 147.36175156 -73.59623665 143.24670029 -76.03663635 139.1398468 C-76.85518449 137.73929562 -77.67298542 136.33830724 -78.48976135 134.9367218 C-78.85303528 134.33642151 -79.2163092 133.73612122 -79.59059143 133.11763 C-81.74348924 129.37850103 -82.53792884 126.66601573 -81.92726135 122.3742218 C-80.59913635 119.68281555 -80.59913635 119.68281555 -78.67726135 116.8117218 C-77.93141882 115.66434988 -77.1894957 114.51442432 -76.45069885 113.36250305 C-75.84113342 112.41431702 -75.84113342 112.41431702 -75.21925354 111.44697571 C-72.78386408 107.53985996 -70.56082768 103.51018829 -68.30226135 99.4992218 C-60.99101223 86.59528999 -53.24437968 73.96025628 -45.4389801 61.3507843 C-44.41224182 59.69176086 -44.41224182 59.69176086 -43.36476135 57.9992218 C-42.80659729 57.10461243 -42.24843323 56.21000305 -41.6733551 55.2882843 C-40.25792076 52.92606055 -38.90822612 50.55087217 -37.5796051 48.1398468 C-34.84779359 43.19175719 -31.96756926 38.34094052 -29.05226135 33.4992218 C-28.52559875 32.62225647 -27.99893616 31.74529114 -27.45631409 30.8417511 C-24.18105005 25.40480273 -20.83718222 20.02718731 -17.3764801 14.70625305 C-15.47763044 11.65069173 -13.84296591 8.4800236 -12.26319885 5.2492218 C-9.12816312 0.84917165 -5.16009188 -0.00084037 0 0 Z " fill="#F7F7F6" transform="translate(114.92726135253906,123.62577819824219)"/>
<path d="M0 0 C0.66 0 1.32 0 2 0 C2 3 2 3 0.5 4.5625 C0.005 5.036875 -0.49 5.51125 -1 6 C-1 6.66 -1 7.32 -1 8 C-2.65 8.66 -4.3 9.32 -6 10 C-5.34 8.02 -4.68 6.04 -4 4 C-3.34 4 -2.68 4 -2 4 C-1.34 2.68 -0.68 1.36 0 0 Z " fill="#C3C0C2" transform="translate(317,125)"/>
<path d="M0 0 C0.66 1.32 1.32 2.64 2 4 C1.195625 4.763125 0.39125 5.52625 -0.4375 6.3125 C-3.16799024 8.79430898 -3.16799024 8.79430898 -4 12 C-4.66 12 -5.32 12 -6 12 C-4.43358249 7.69235185 -2.31663844 3.93828536 0 0 Z " fill="#BDBBBC" transform="translate(70,184)"/>
<path d="M0 0 C2.40072955 2.88087546 4.47291037 5.56404834 6 9 C3.97954558 8.39816251 1.97888961 7.72693904 0 7 C-1.33332095 4.3333581 -0.67102033 2.83319697 0 0 Z " fill="#BBBAB8" transform="translate(220,287)"/>
<path d="M0 0 C0 3.02131474 -0.0232997 5.13966342 -1 8 C-4.0625 10.3125 -4.0625 10.3125 -7 12 C-5.44298069 7.32894208 -2.91552627 3.91294315 0 0 Z " fill="#AFADAD" transform="translate(273,266)"/>
<path d="M0 0 C0.66 1.32 1.32 2.64 2 4 C-0.12780579 6.34058637 -2.11562221 7.70700306 -5 9 C-3.7508258 5.54074837 -2.32472205 2.85306797 0 0 Z " fill="#CCC9CA" transform="translate(161,235)"/>
<path d="M0 0 C0.5534764 2.07553648 1 3.84365964 1 6 C-0.875 8.125 -0.875 8.125 -3 10 C-3.66 10 -4.32 10 -5 10 C-4.34 8.02 -3.68 6.04 -3 4 C-2.34 4 -1.68 4 -1 4 C-0.67 2.68 -0.34 1.36 0 0 Z " fill="#B7B5B5" transform="translate(167,225)"/>
<path d="M0 0 C0.66 0.99 1.32 1.98 2 3 C1.01 3.33 0.02 3.66 -1 4 C-1 4.66 -1 5.32 -1 6 C-0.34 6 0.32 6 1 6 C-0.39195915 8.7839183 -2.15575779 8.97898997 -5 10 C-3.66511872 6.40608886 -2.03977277 3.24509304 0 0 Z " fill="#B7B4B5" transform="translate(89,152)"/>
<path d="M0 0 C3.48331435 3.01887244 4.79157144 5.56909529 6 10 C3.5625 8.9375 3.5625 8.9375 1 7 C0.1875 3.3125 0.1875 3.3125 0 0 Z " fill="#C1BFBE" transform="translate(306,215)"/>
<path d="M0 0 C0 0.99 0 1.98 0 3 C0.63514826 5.34210921 1.2986716 7.67684969 2 10 C1.01 9.67 0.02 9.34 -1 9 C-1.625 5.625 -1.625 5.625 -2 2 C-1.34 1.34 -0.68 0.68 0 0 Z " fill="#A09E9D" transform="translate(77,246)"/>
<path d="M0 0 C1.0326802 2.78823655 1.04509293 3.8677274 0.0625 6.75 C-0.288125 7.4925 -0.63875 8.235 -1 9 C-1.33 8.34 -1.66 7.68 -2 7 C-4.02463255 6.34786708 -4.02463255 6.34786708 -6 6 C-5.195625 5.566875 -4.39125 5.13375 -3.5625 4.6875 C-0.72153646 3.19525998 -0.72153646 3.19525998 0 0 Z " fill="#979695" transform="translate(365,333)"/>
<path d="M0 0 C0.33 0.66 0.66 1.32 1 2 C1.66 2.33 2.32 2.66 3 3 C0.69 4.65 -1.62 6.3 -4 8 C-2.87548273 5.0280615 -1.77706209 2.66559313 0 0 Z " fill="#AFACAD" transform="translate(386,299)"/>
<path d="M0 0 C0.66 0 1.32 0 2 0 C0.8141763 3.37503669 -0.27573689 5.64722731 -3 8 C-3.33 6.68 -3.66 5.36 -4 4 C-3.34 4 -2.68 4 -2 4 C-2 3.34 -2 2.68 -2 2 C-1.34 2 -0.68 2 0 2 C0 1.34 0 0.68 0 0 Z " fill="#979491" transform="translate(215,218)"/>
</svg>
